<?xml version="1.0" encoding="UTF-8" standalone="no"?>
<svg
   xmlns:dc="http://purl.org/dc/elements/1.1/"
   xmlns:cc="http://creativecommons.org/ns#"
   xmlns:rdf="http://www.w3.org/1999/02/22-rdf-syntax-ns#"
   xmlns:svg="http://www.w3.org/2000/svg"
   xmlns="http://www.w3.org/2000/svg"
   width="256"
   height="152.00002"
   viewBox="0 0 67.733332 40.216672"
   version="1.1"
   id="svg2477">
  <title
     id="title3028">Wavy Lines</title>
  <defs
     id="defs2471" />
  <metadata
     id="metadata2474">
    <rdf:RDF>
      <cc:Work
         rdf:about="">
        <dc:format>image/svg+xml</dc:format>
        <dc:type
           rdf:resource="http://purl.org/dc/dcmitype/StillImage" />
        <dc:title>Wavy Lines</dc:title>
        <dc:subject>
          <rdf:Bag>
            <rdf:li>fill</rdf:li>
            <rdf:li>pattern</rdf:li>
            <rdf:li>tile</rdf:li>
            <rdf:li>waves</rdf:li>
          </rdf:Bag>
        </dc:subject>
        <dc:description>Tileable pattern</dc:description>
        <dc:creator>
          <cc:Agent>
            <dc:title>Arvin61r58</dc:title>
          </cc:Agent>
        </dc:creator>
        <dc:publisher>
          <cc:Agent>
            <dc:title>Openclipart.org</dc:title>
          </cc:Agent>
        </dc:publisher>
        <dc:identifier>https://openclipart.org/</dc:identifier>
        <dc:source>https://openclipart.org/user-detail/Arvin61r58</dc:source>
        <cc:license
           rdf:resource="http://creativecommons.org/licenses/by-nc-nd/4.0/" />
      </cc:Work>
      <cc:License
         rdf:about="http://creativecommons.org/licenses/by-nc-nd/4.0/">
        <cc:permits
           rdf:resource="http://creativecommons.org/ns#Reproduction" />
        <cc:permits
           rdf:resource="http://creativecommons.org/ns#Distribution" />
        <cc:requires
           rdf:resource="http://creativecommons.org/ns#Notice" />
        <cc:requires
           rdf:resource="http://creativecommons.org/ns#Attribution" />
        <cc:prohibits
           rdf:resource="http://creativecommons.org/ns#CommercialUse" />
      </cc:License>
    </rdf:RDF>
  </metadata>
  <g
     id="layer1"
     transform="translate(-71.133333,-128.39166)">
    <path
       style="fill:#000000;stroke-width:0.99999994"
       d="m 71.133334,128.39166 v 0.23942 c 0.95624,0.17639 1.89781,0.35022 3.02091,0.55135 5.69219,1.01939 8.26979,2.08701 10.81109,4.47724 1.64169,1.54413 2.01903,2.20237 2.86304,4.98479 0.87126,2.87218 1.18834,3.40316 3.04496,5.10941 3.01917,2.77462 4.65978,3.30494 17.122746,5.53689 5.69217,1.01937 8.26981,2.087 10.81108,4.47724 1.64173,1.54413 2.01981,2.20237 2.86381,4.98479 0.87126,2.87218 1.18758,3.40316 3.04423,5.10941 2.62647,2.41372 4.22597,3.13142 12.79844,4.74613 h 1.35301 v -0.20846 c -9.36463,-1.7358 -11.05035,-2.42833 -13.7516,-4.91077 -1.8396,-1.69063 -2.15969,-2.22866 -3.02917,-5.09507 -0.84578,-2.78828 -1.22012,-3.43829 -2.87882,-4.99838 -2.55666,-2.4047 -5.1256,-3.47071 -10.82612,-4.49159 -12.448976,-2.22943 -14.106356,-2.76435 -17.108476,-5.5233 -1.83962,-1.69062 -2.15967,-2.22864 -3.02915,-5.09506 -0.84582,-2.78826 -1.22016,-3.43829 -2.87885,-4.99838 -2.55667,-2.40469 -5.12557,-3.47071 -10.82613,-4.49159 -0.82346,-0.14747 -1.48259,-0.2703 -2.21511,-0.40407 z m 13.56591,0 c 0.0887,0.0798 0.17815,0.15823 0.26609,0.24093 1.64169,1.54413 2.01903,2.20237 2.86304,4.98479 0.87126,2.87218 1.18834,3.40316 3.04496,5.1094 2.47018,2.2701 5.08839,3.32377 10.920836,4.39492 2.26506,0.416 5.67609,1.04292 7.57971,1.39272 4.42064,0.81233 7.06084,1.99508 9.43328,4.2265 1.64173,1.54413 2.01981,2.20237 2.86381,4.98479 0.87126,2.87218 1.18758,3.40314 3.04423,5.1094 2.47019,2.2701 5.08912,3.32375 10.92158,4.39493 0.96519,0.17727 2.05384,0.37762 3.22987,0.59364 v -0.45769 c -1.03281,-0.18972 -1.99474,-0.36649 -2.84503,-0.52266 -5.82094,-1.06903 -8.45269,-2.12625 -10.90657,-4.38132 -1.8396,-1.69063 -2.15969,-2.22866 -3.02917,-5.09506 -0.84578,-2.78828 -1.22012,-3.43828 -2.87882,-4.99838 -2.38736,-2.24546 -5.02042,-3.42719 -9.44833,-4.24084 -1.90365,-0.34981 -5.31466,-0.97673 -7.57972,-1.39272 -5.820936,-1.06906 -8.452717,-2.12625 -10.906546,-4.38133 -1.83962,-1.69062 -2.159671,-2.22864 -3.029151,-5.09506 -0.82049,-2.7048 -1.20761,-3.4038 -2.743579,-4.86696 z m 3.06675,0 c 0.0215,0.0699 0.0403,0.12591 0.0624,0.19864 0.87125,2.8722 1.188329,3.40314 3.04495,5.1094 3.01917,2.77461 4.65978,3.30495 17.122746,5.53689 5.69219,1.01938 8.26982,2.087 10.8111,4.47724 1.64171,1.54414 2.01979,2.20237 2.86381,4.98479 0.87125,2.87219 1.18756,3.40317 3.04421,5.10941 2.75152,2.52863 4.45474,3.2072 14.15146,4.9946 v -0.45694 c -9.36464,-1.73579 -11.05035,-2.42832 -13.7516,-4.91077 -1.83961,-1.69061 -2.15968,-2.22864 -3.02918,-5.09505 -0.84577,-2.78828 -1.22011,-3.43829 -2.87882,-4.99838 -2.55665,-2.4047 -5.1256,-3.47073 -10.82612,-4.4916 -12.448976,-2.22943 -14.106356,-2.76436 -17.108476,-5.52329 -1.80174,-1.65584 -2.14849,-2.21997 -2.978801,-4.93494 z m 2.80893,0 c 0.0998,0.0938 0.18818,0.17966 0.29841,0.28096 2.47018,2.2701 5.08839,3.32374 10.920836,4.39492 2.26506,0.41598 5.67609,1.04291 7.57971,1.39272 4.42064,0.81232 7.06084,1.99508 9.43328,4.22649 1.64173,1.54415 2.01981,2.20237 2.86381,4.98479 0.87126,2.8722 1.18758,3.40315 3.04423,5.10941 2.47019,2.27009 5.08912,3.32376 10.92158,4.39492 0.96519,0.17726 2.05384,0.37761 3.22987,0.59364 v -0.45769 c -1.03281,-0.18972 -1.99474,-0.3665 -2.84503,-0.52265 -5.82094,-1.06906 -8.45269,-2.12624 -10.90657,-4.38133 -1.8396,-1.69063 -2.15969,-2.22865 -3.02917,-5.09505 -0.84578,-2.78828 -1.22012,-3.4383 -2.87882,-4.99839 -2.38736,-2.24546 -5.02042,-3.42719 -9.44833,-4.24084 -1.90365,-0.34981 -5.31466,-0.97672 -7.57972,-1.39272 -5.738926,-1.05399 -8.377256,-2.09891 -10.802067,-4.28918 z m 13.096876,0 c 1.2817,0.24142 2.70326,0.50047 4.32428,0.79077 5.69217,1.01939 8.26981,2.08701 10.81108,4.47724 1.64173,1.54413 2.01981,2.20237 2.86381,4.98479 0.87126,2.87218 1.18758,3.40316 3.04423,5.10941 2.75152,2.52864 4.45473,3.20718 14.15145,4.9946 v -0.45694 c -9.36463,-1.7358 -11.05035,-2.42833 -13.7516,-4.91077 -1.8396,-1.69062 -2.15969,-2.22864 -3.02917,-5.09506 -0.84578,-2.78826 -1.22012,-3.43829 -2.87882,-4.99838 -2.55666,-2.40469 -5.1256,-3.47071 -10.82612,-4.49159 -0.82346,-0.14747 -1.4826,-0.2703 -2.21511,-0.40407 z m 14.87005,0 c 0.0887,0.0798 0.17745,0.15829 0.26531,0.24093 1.64173,1.54413 2.01981,2.20237 2.86381,4.98479 0.87126,2.87218 1.18758,3.40316 3.04423,5.1094 2.47019,2.2701 5.08912,3.32377 10.92158,4.39492 0.96519,0.17727 2.05384,0.37762 3.22987,0.59365 v -0.45769 c -1.03281,-0.18973 -1.99474,-0.3665 -2.84503,-0.52265 -5.82094,-1.06906 -8.45269,-2.12625 -10.90657,-4.38133 -1.8396,-1.69062 -2.15969,-2.22864 -3.02917,-5.09506 -0.82045,-2.7048 -1.20758,-3.4038 -2.74355,-4.86696 z m 3.06675,0 c 0.0215,0.0699 0.0403,0.12593 0.0624,0.19864 0.87124,2.8722 1.18755,3.40314 3.0442,5.1094 2.75153,2.52863 4.45474,3.20719 14.15146,4.9946 v -0.45693 c -9.36463,-1.7358 -11.05034,-2.42835 -13.75159,-4.91077 -1.80175,-1.65584 -2.14848,-2.21997 -2.97879,-4.93494 z m 2.80818,0 c 0.0999,0.0938 0.18812,0.17959 0.29842,0.28096 2.47019,2.2701 5.08912,3.32374 10.92158,4.39492 0.96519,0.17726 2.05384,0.37761 3.22987,0.59364 v -0.45769 c -1.03281,-0.18972 -1.99474,-0.36649 -2.84503,-0.52265 -5.73893,-1.05399 -8.37726,-2.09891 -10.80207,-4.28918 z m 13.09686,0 c 0.4081,0.0769 0.91236,0.16726 1.35301,0.24848 v -0.24848 z m -66.380306,4.80277 v 0.45769 c 1.60136,0.29417 3.29397,0.60514 4.39871,0.80814 4.42064,0.81232 7.06081,1.99508 9.43329,4.22649 1.64169,1.54415 2.01903,2.20237 2.86304,4.98479 0.87126,2.8722 1.18834,3.40315 3.04496,5.10941 2.47018,2.27009 5.08839,3.32376 10.920836,4.39492 2.26506,0.41599 5.67609,1.04291 7.57971,1.39272 4.42064,0.81232 7.06084,1.99507 9.43328,4.22649 1.64173,1.54414 2.01981,2.20237 2.86381,4.98479 0.8195,2.70155 1.16464,3.34321 2.74581,4.82846 h 0.80277 c -0.0346,-0.0313 -0.0698,-0.0604 -0.10444,-0.0921 -1.83962,-1.69062 -2.15969,-2.22864 -3.02918,-5.09505 -0.84578,-2.78828 -1.22013,-3.4383 -2.87882,-4.99839 -2.38737,-2.24547 -5.02043,-3.42718 -9.44834,-4.24084 -1.90365,-0.34979 -5.31464,-0.97672 -7.5797,-1.39272 -5.820956,-1.06906 -8.452737,-2.12625 -10.906567,-4.38133 -1.839609,-1.69063 -2.15965,-2.22865 -3.029129,-5.09505 -0.845831,-2.78828 -1.22018,-3.4383 -2.878871,-4.99839 -2.38737,-2.24546 -5.02039,-3.42719 -9.44833,-4.24084 -1.2013,-0.22075 -3.047759,-0.56042 -4.78279,-0.87913 z m 0,5.03463 v 0.45619 c 0.95624,0.17638 1.89781,0.35021 3.02091,0.55134 5.69219,1.01938 8.26979,2.087 10.81109,4.47724 1.64169,1.54414 2.01903,2.20237 2.86304,4.98479 0.87126,2.87219 1.18834,3.40317 3.04496,5.10941 3.01917,2.77461 4.65978,3.30496 17.122746,5.53689 5.69217,1.01939 8.26981,2.08701 10.81108,4.47725 1.59882,1.50378 2.00206,2.18259 2.80144,4.78616 h 0.52766 c -0.0174,-0.057 -0.0324,-0.10114 -0.0503,-0.16013 -0.84578,-2.78828 -1.22013,-3.43828 -2.87882,-4.99837 -2.55666,-2.40469 -5.12561,-3.46997 -10.82613,-4.49085 -12.448956,-2.22943 -14.106356,-2.76511 -17.108476,-5.52406 -1.83961,-1.69061 -2.15965,-2.22864 -3.02913,-5.09505 -0.84583,-2.78828 -1.22018,-3.43829 -2.87887,-4.99838 -2.55666,-2.4047 -5.12556,-3.47071 -10.82613,-4.4916 -1.26576,-0.22668 -2.34961,-0.42506 -3.40499,-0.62083 z m 0,5.01953 v 0.45769 c 1.60136,0.29417 3.29397,0.60514 4.39871,0.80814 4.42064,0.81233 7.06081,1.99508 9.43329,4.2265 1.64169,1.54413 2.01903,2.20237 2.86304,4.98479 0.87126,2.87218 1.18834,3.40314 3.04496,5.1094 2.47018,2.2701 5.08839,3.32375 10.920836,4.39493 2.26506,0.416 5.67609,1.04293 7.57971,1.39272 4.25692,0.78224 6.86227,1.91066 9.16797,3.98557 h 0.80048 c -0.0474,-0.0452 -0.0857,-0.0848 -0.13527,-0.1314 -2.38736,-2.24546 -5.02042,-3.42717 -9.44833,-4.24084 -1.90365,-0.3498 -5.31466,-0.97672 -7.57972,-1.39273 -5.820936,-1.06903 -8.452717,-2.12625 -10.906546,-4.38132 -1.83962,-1.69064 -2.15965,-2.22866 -3.029151,-5.09506 -0.84582,-2.78828 -1.220159,-3.43828 -2.87885,-4.99838 -2.38737,-2.24546 -5.02039,-3.42719 -9.44834,-4.24084 -1.2013,-0.22075 -3.04777,-0.56043 -4.78279,-0.87914 z m 0,5.03463 v 0.45694 c 0.95624,0.17638 1.89786,0.35023 3.02091,0.55135 5.69219,1.01938 8.26979,2.08625 10.81109,4.47649 1.64169,1.54413 2.01903,2.20237 2.86304,4.98479 0.87126,2.87218 1.18834,3.40316 3.04496,5.10941 2.62647,2.41372 4.225979,3.13142 12.798466,4.74612 h 2.49176 C 95.823744,166.72 94.075804,166.06611 91.272464,163.48986 c -1.83962,-1.69063 -2.15967,-2.22942 -3.02915,-5.09583 -0.84582,-2.78828 -1.22016,-3.43829 -2.87885,-4.99838 -2.55667,-2.4047 -5.12557,-3.46996 -10.82613,-4.49084 -1.26578,-0.22668 -2.34962,-0.42582 -3.405,-0.62159 z m 0,5.01953 v 0.4577 c 1.60136,0.29417 3.29397,0.60514 4.39871,0.80814 4.42064,0.81232 7.06081,1.99507 9.43329,4.22649 1.64169,1.54413 2.01903,2.20237 2.86304,4.98479 0.81954,2.70165 1.16524,3.34308 2.74655,4.82845 h 0.80202 c -0.0346,-0.0313 -0.0698,-0.0604 -0.10444,-0.0921 -1.83961,-1.69062 -2.15965,-2.22864 -3.02913,-5.09505 -0.84583,-2.78827 -1.22018,-3.4383 -2.87887,-4.99839 -2.38737,-2.24546 -5.02039,-3.42718 -9.44833,-4.24084 -1.2013,-0.22074 -3.04776,-0.56043 -4.78279,-0.87914 z m 0,5.03464 v 0.45694 c 0.95624,0.17638 1.89786,0.35022 3.02091,0.55134 5.69219,1.0194 8.26979,2.08626 10.81109,4.4765 1.59878,1.50376 2.00128,2.18262 2.80066,4.78615 h 0.52766 c -0.0174,-0.057 -0.0324,-0.10113 -0.0503,-0.16012 -0.84581,-2.78828 -1.22016,-3.43828 -2.87886,-4.99837 -2.55665,-2.40469 -5.12555,-3.46997 -10.82612,-4.49086 -1.26577,-0.22668 -2.34961,-0.42582 -3.405,-0.62158 z m 0,5.01954 v 0.45768 c 1.60136,0.29416 3.29397,0.60515 4.39871,0.80815 4.25682,0.78221 6.86154,1.91075 9.1672,3.98556 h 0.80049 c -0.0474,-0.0452 -0.0857,-0.0848 -0.135271,-0.13139 -2.38737,-2.24546 -5.02039,-3.42717 -9.44834,-4.24084 -1.2013,-0.22075 -3.04777,-0.56043 -4.78279,-0.87913 z m 0,5.03462 v 0.21677 h 1.18762 c -0.3927,-0.0718 -0.81952,-0.14849 -1.18762,-0.21677 z"
       id="path9367" />
  </g>
</svg>
