<svg xmlns="http://www.w3.org/2000/svg" viewBox="0 0 147.45 103.26"><defs><style>.cls-1{fill:none;stroke:#000;stroke-miterlimit:10;stroke-width:2px;}</style></defs><g id="Layer_2" data-name="Layer 2"><g id="Layer_2-2" data-name="Layer 2"><path class="cls-1" d="M97.22,18.28s21.72,36,2.29,66.5C82.87,110.86,75.59,91,84.68,75.13c0,0,26.63-44.45,62.5-54.58"/><path class="cls-1" d="M76.86,54.86c2-5.55,11.45-35.94,3.51-40.68-.12-.07-.14-.14-.27-.2-1.43-.67-3.56-.07-4.91.74C73,16,67.23,23,63.13,29.71,55.9,41.54,52,52.9,51.51,59.29c.16-3,3.73-36-6-38.67-6.58-1.77-17.42,13.71-24.81,24.44C19.45,46.87-6.18,84.68,3,98.12c.56.82,2.47,3.63,5.52,4.08,4.52.66,8.62-4.3,10.24-6.21C31.5,80.93,34,51.63,22.76,27.12A79,79,0,0,0,2.9.75"/></g></g></svg>