<svg xmlns="http://www.w3.org/2000/svg" viewBox="0 0 514.08 192.16"><defs><style>.cls-1{fill:#8ca16a;}.cls-2{fill:#c2cd93;}.cls-3{fill:#e43c2f;}.cls-4{fill:#cbae3e;}.cls-5{fill:#1c322f;}.cls-6{fill:#f0b890;}</style></defs><g id="Layer_2" data-name="Layer 2"><g id="Layer_2-2" data-name="Layer 2"><path class="cls-1" d="M173.57,72.43a10.82,10.82,0,0,1-3.42,1.77,27.81,27.81,0,0,1-4.23,1L155.1,6.87a16.81,16.81,0,0,1,7.62-3Z"/><path class="cls-2" d="M203.75,37.82c6.19-4.57,12.59-12.21,18.25-18.35S233.36,8.08,238.15,2.05a10.69,10.69,0,0,1,2.94-1A16.77,16.77,0,0,1,244.5.8c.52,0,1.06,0,1.61.08a3.43,3.43,0,0,1,1.22.26c-2.4,3-5,5.94-7.66,8.79s-5.51,5.57-8.38,8.19-5.74,5.1-8.61,7.45-5.66,4.58-8.36,6.68a9.15,9.15,0,0,1,2.19.67,10,10,0,0,1,2.07,1.3,17.37,17.37,0,0,1,2.2,2.19q1.16,1.34,2.77,3.31l14.5,18.38q2,2.58,3.53,4.35c1,1.19,1.93,2.23,2.72,3.12s1.55,1.67,2.25,2.33,1.41,1.29,2.12,1.89l0,.68a11.88,11.88,0,0,1-2,.5,25.55,25.55,0,0,1-2.54.35c-.92.08-1.79.15-2.64.2s-1.56.07-2.14.06A9.86,9.86,0,0,1,236.3,69c-1.15-1.32-2.86-3.53-5.15-6.62L216.3,42.23a16.68,16.68,0,0,0-3.79-3.87,6.69,6.69,0,0,0-3.54-1,8.79,8.79,0,0,0-3,.39,9,9,0,0,0-2.31,1.18l-.53,30.5a11.06,11.06,0,0,1-3.67,1.15,27,27,0,0,1-4.35.27l1.21-69.19a16.91,16.91,0,0,1,8-1.62Z"/><path class="cls-3" d="M255.68,74.26q4.26-7.7,9.06-16.45t9.63-17.4q4.83-8.65,9.39-16.75t8.18-14.6a15.72,15.72,0,0,1,3.72-.69,20.46,20.46,0,0,1,3.92.13L316,81.17a9.37,9.37,0,0,1-2.52.5,17.37,17.37,0,0,1-3.72-.15l-.91-.12a4.62,4.62,0,0,1-.91-.22l-4.52-23.5-30.92-4.09c-3.17,6.59-6.34,14.92-8.9,20.93a7.28,7.28,0,0,1-2.37.43,17.37,17.37,0,0,1-2.88-.14c-.58-.07-1.1-.16-1.54-.25A8.38,8.38,0,0,1,255.68,74.26Zm37.54-59.33q-4.55,8.36-9.35,17.59c-3.21,6.16-6.68,12.38-9.81,18.65l28.74,3.67Z"/><path class="cls-4" d="M332.53,84.4l7.52-68a17.66,17.66,0,0,1,8.17-1.16c1.87.15,4.38.37,7.52.69s6.46.63,10,.95,7,.66,10.38,1,6.26.64,8.58.89c-.28,1.35-.78,1.53-1.52,2.55a4.58,4.58,0,0,1-2.32,1.91q-3.28-.37-7.44-1L364.82,21q-4.44-.63-8.87-1.32t-8.2-1.3l-3.14,30.5,30.77,1.8c-.26,1.15-.7,1.17-1.32,2.08a2.85,2.85,0,0,1-1.93,1.46q-7.06-.89-14-1.7t-13.92-1.78L340.94,82q8.55.75,17.8,1.33t19.59,1a10.75,10.75,0,0,1-1.58,3.69c-.7,1-1.43.65-2.18,1Z"/><path class="cls-5" d="M407.52,88.27q7.91,0,16.39-.13t19.14-.41a10.52,10.52,0,0,1-1.23,3.9c-.63,1.11-1.31.84-2,1.2l-40.42-1.6,2.74-69.14a16.94,16.94,0,0,1,8.06-1.44Z"/><path class="cls-6" d="M455.57,92.22q1.06-8.73,2.21-18.65t2.39-19.75q1.21-9.82,2.41-19t2.08-16.6a15.89,15.89,0,0,1,3.2-2,19.84,19.84,0,0,1,3.68-1.35l42.54,61.16a9.06,9.06,0,0,1-2.15,1.41,17.79,17.79,0,0,1-3.5,1.26l-.9.24a5.1,5.1,0,0,1-.92.13l-12.74-19.1-30.19,7.83c-.46,7.3-.55,15.23-.66,21.77a7.39,7.39,0,0,1-2,1.28,15.66,15.66,0,0,1-2.72,1c-.56.15-1.07.26-1.52.35A10.42,10.42,0,0,1,455.57,92.22Zm12.49-69.09Q467,32.57,466,43c-.65,6.91-1.55,14.87-2.09,21.86l28.19-7Z"/><path class="cls-5" d="M80,132.34a118.21,118.21,0,0,0-10.9-23.28A121.29,121.29,0,0,0,49.19,83.8,124.71,124.71,0,0,0,21.24,63.74c-7.22-3.92-19.75-8.87-19.9-9A32.87,32.87,0,0,1,.1,48.35a22.43,22.43,0,0,1,.22-5.9,111.06,111.06,0,0,1,16,7.11A130.78,130.78,0,0,1,33.46,60.87a112,112,0,0,1,11.67,9.52A104.88,104.88,0,0,1,56.27,82.83C68,97.91,74,111.46,80,132.34Z"/><path class="cls-5" d="M144.09,82.73a14.74,14.74,0,0,1-4.18,2.38c-1.75.66-1.94.87-3,.93-1-9.41-2.15-20.36-3.56-33.57-1.81-16.87-5-33.9-10.67-34.54C135.87,17.24,143.81,73.33,144.09,82.73Z"/><path class="cls-5" d="M51.57,84c1.28-4.45,2.71-8.86,4.33-13.23a104.72,104.72,0,0,1,5.69-12.88,48.44,48.44,0,0,1,3.85-6.16,20,20,0,0,1,5.75-5.45,10.37,10.37,0,0,1,2.11-.93,8.23,8.23,0,0,1,2.39-.38,10.57,10.57,0,0,1,4.41.83,18.44,18.44,0,0,1,6.33,4.72,54,54,0,0,1,7.79,12,135.81,135.81,0,0,1,5.53,12.74c3.26,8.6,5.9,17.52,8.29,26.24-.07.15-.21.77-1.47,1.49a2.49,2.49,0,0,1-1.5.4,94.31,94.31,0,0,1-1.82-12.45c-.29-3.81-.36-7.62-.28-11.42a158.62,158.62,0,0,1,2.17-22.63,135.21,135.21,0,0,1,5.45-22,102.64,102.64,0,0,1,4.13-10.56,22.34,22.34,0,0,1,1.35-2.5,9.42,9.42,0,0,1,1.9-2.13A6.66,6.66,0,0,1,123.24,18a6.57,6.57,0,0,0-5.13,1.89,8.42,8.42,0,0,0-1.69,2,22.29,22.29,0,0,0-1.34,2.51A103.76,103.76,0,0,0,111.34,35a133.6,133.6,0,0,0-4.65,22,157.09,157.09,0,0,0-1.38,22.41c0,3.73.25,7.46.66,11.15A62.15,62.15,0,0,0,108,101.43l-3,1.89c-1.41-4.43-2.75-9.66-4.26-14S97.72,80.85,96,76.7a127.55,127.55,0,0,0-5.76-12.15A49.54,49.54,0,0,0,82.8,53.9a13.55,13.55,0,0,0-4.62-3.29,5.29,5.29,0,0,0-2.27-.36,3.34,3.34,0,0,0-1,.19,5.33,5.33,0,0,0-1,.49A14.82,14.82,0,0,0,70,55a43.16,43.16,0,0,0-3.2,5.53,99.47,99.47,0,0,0-4.95,12.29c-1.42,4.23-2.66,8.54-3.76,12.88a3.39,3.39,0,0,1-6.58-1.66Z"/><path class="cls-5" d="M74.58,117h0a85,85,0,0,1,7.51,47.7,65.17,65.17,0,0,1-2.82,12c-1.29,3.88-2.86,7.83-5.68,11.15a12.6,12.6,0,0,1-5.43,3.83,11.73,11.73,0,0,1-6.74.1,19.46,19.46,0,0,1-5.89-2.83,19.15,19.15,0,0,1-4.7-4.63,35.31,35.31,0,0,1-5.11-11.68,75.58,75.58,0,0,1-2-12.33,160.6,160.6,0,0,1,.08-24.72c.6-8.19,1.6-16.34,2.89-24.44.66-4,1.37-8.08,2.2-12.12l2.53-12a3.39,3.39,0,1,1,6.64,1.4l0,.06,0,.15c-.93,3.93-1.83,7.93-2.78,11.8s-1.81,7.83-2.61,11.77C51.06,120,49.76,128,48.87,136a155.22,155.22,0,0,0-1,24,72.11,72.11,0,0,0,1.44,11.77,31.6,31.6,0,0,0,4.16,10.71,17,17,0,0,0,8.72,6.67,9.08,9.08,0,0,0,5.26.15,10.3,10.3,0,0,0,4.52-3c2.59-2.8,4.28-6.49,5.68-10.24a62.59,62.59,0,0,0,3.09-11.62A84.36,84.36,0,0,0,74.58,117h0"/><path class="cls-5" d="M74.8,186.11c7.33-11.21,8.54-26.75,7.92-37.13C81.41,127.35,73,109.65,67,99.06c-1.1,1.29-1.31,2.39-2.41,3.68,5.37,8.67,12,18.84,15.31,34.91,0,0,4.21,17.68-1.31,35.63a34.07,34.07,0,0,1-7.13,13.51"/><path class="cls-5" d="M51,85.52a103,103,0,0,1,13.74,17.61l2.82-.69S55.54,84.52,51,85.52Z"/><path class="cls-5" d="M120.39,18.19c5.25-1.76,8.55,3.93,8.55,3.93l-.73,3.26a13.38,13.38,0,0,0-3.37-5.66,4.5,4.5,0,0,0-3.58-1.06,4.71,4.71,0,0,0-.52.09c-4.93,1.26-7,8.51-9.49,16.75-.82,2.67-1.46,4.9-1.8,6.37-.25-.15-.6-.3-.85-.45.12-.5.37-1.53.7-2.81,4.07-15.64,7.41-18.41,9.33-19.56A11.53,11.53,0,0,1,120.39,18.19Z"/></g></g></svg>