<svg width="786" height="378" viewBox="0 0 786 378" fill="none" xmlns="http://www.w3.org/2000/svg">
<path d="M114.157 128.899C113.836 129.55 113.304 130.219 112.561 130.905C111.785 131.493 110.912 132.115 109.941 132.77C109.068 133.391 108.13 133.981 107.126 134.538C106.09 134.998 105.134 135.377 104.259 135.674L46.6815 69.997C48.5743 77.8112 50.5167 85.7712 52.5086 93.877C54.5647 101.853 56.6043 109.78 58.6274 117.658C60.7147 125.406 62.769 133.057 64.7904 140.611C66.8759 148.035 68.9111 155.15 70.896 161.957C69.7346 163.327 68.0854 164.537 65.9482 165.588C63.9414 166.703 61.8685 167.623 59.7296 168.349C56.0305 150.739 52.3948 132.837 48.8224 114.643C45.25 96.4487 41.7592 78.335 38.35 60.3021C39.4472 59.0624 41.0313 57.8201 43.1024 56.5752C45.1406 55.233 47.1318 54.232 49.0762 53.5722L107.542 121.387C108.277 107.26 109.044 92.9055 109.841 78.3237C110.736 63.7089 111.502 49.1922 112.138 34.7736C113.43 33.468 115.03 32.2743 116.94 31.1926C118.947 30.0779 120.923 29.1906 122.867 28.5307L170.403 128.351C169.305 129.591 167.688 130.736 165.551 131.787C163.447 132.934 161.326 133.871 159.187 134.597L118.248 47.9869C117.511 61.7892 116.758 75.5428 115.988 89.2479C115.315 102.92 114.705 116.137 114.157 128.899Z" fill="black"/>
<path d="M207.37 130.172C205.724 131.09 203.771 131.699 201.511 131.999C199.353 132.402 197.094 132.599 194.733 132.59L195.128 23.2512C198.625 21.4158 202.838 20.507 207.766 20.5248L207.37 130.172Z" fill="#8CA16A"/>
<path d="M265.82 78.8915C276.984 74.0823 288.138 68.4764 299.281 62.0736C310.548 55.5964 320.945 48.5821 330.472 41.0308C331.942 40.6601 333.56 40.5387 335.328 40.6667C337.121 40.695 338.913 40.935 340.705 41.3867C341.502 41.5874 342.286 41.838 343.057 42.1382C343.953 42.3641 344.575 42.6267 344.923 42.9262C340.16 46.7019 335.173 50.3152 329.962 53.7663C324.776 57.1179 319.479 60.2824 314.069 63.26C308.76 66.2627 303.451 69.0538 298.142 71.6332C292.933 74.2376 287.873 76.6681 282.963 78.9246C284.108 79.4248 285.115 80.0492 285.985 80.7979C286.98 81.4722 287.912 82.3953 288.781 83.5673C289.676 84.6397 290.544 86.0234 291.388 87.7182C292.256 89.3135 293.286 91.32 294.476 93.7376L310.173 127.234C311.612 130.349 312.901 133.004 314.043 135.197C315.184 137.391 316.176 139.335 317.019 141.03C317.987 142.65 318.893 144.096 319.738 145.368C320.582 146.639 321.438 147.861 322.308 149.033L322.044 150.078C321.172 150.176 320.102 150.224 318.832 150.221C317.587 150.119 316.255 149.942 314.836 149.691C313.392 149.539 312.011 149.349 310.691 149.122C309.372 148.896 308.265 148.67 307.369 148.444C306.125 147.495 304.859 145.799 303.569 143.357C302.279 140.914 300.431 136.901 298.027 131.319L282.41 94.9842C280.848 91.5201 279.346 89.0769 277.904 87.6548C276.562 86.2578 274.896 85.3084 272.905 84.8065C271.113 84.3549 269.507 84.2148 268.087 84.3864C266.792 84.4835 265.497 84.7922 264.201 85.3126L252.42 132.053C250.602 132.547 248.559 132.668 246.294 132.414C244.103 132.286 241.863 131.933 239.573 131.356L266.297 25.3317C270.133 24.3929 274.441 24.5257 279.219 25.7301L265.82 78.8915Z" fill="#C2CD93"/>
<path d="M343.125 162.698C347.668 154.622 352.492 146.016 357.597 136.878C362.716 127.639 367.821 118.501 372.912 109.465C378.118 100.342 383.123 91.5527 387.926 83.0986C392.844 74.557 397.229 66.874 401.079 60.0498C402.921 59.4765 404.887 59.1278 406.978 59.0036C409.068 58.8795 411.13 58.9588 413.164 59.2414L438.387 174.226C437.401 174.607 436.074 174.837 434.404 174.916C432.721 175.097 430.76 175.031 428.523 174.721C428.015 174.65 427.506 174.579 426.998 174.509C426.591 174.452 426.14 174.338 425.646 174.165L418.242 140.175L369.431 133.392C364.36 143.778 359.766 153.712 355.65 163.195C354.664 163.576 353.394 163.762 351.841 163.754C350.375 163.861 348.879 163.808 347.354 163.596C346.438 163.469 345.632 163.305 344.934 163.105C344.223 163.006 343.619 162.87 343.125 162.698ZM403.053 69.3419C398.208 78.101 393.191 87.3545 388.001 97.1023C382.927 106.763 377.89 116.531 372.889 126.409L416.667 132.493L403.053 69.3419Z" fill="#E43C2F"/>
<path d="M474.138 178.118L471.651 70.0389C475.095 68.0084 479.279 66.8338 484.201 66.5152C487.175 66.344 491.125 66.2017 496.052 66.0883C501.079 65.8699 506.363 65.6456 511.903 65.4154C517.546 65.1828 523.036 65.0051 528.373 64.8822C533.81 64.6544 538.377 64.4979 542.072 64.4129C541.916 66.573 541.345 68.5373 540.359 70.3058C539.475 72.072 538.424 73.2258 537.204 73.7674C533.714 73.8477 529.761 73.8873 525.345 73.8863C520.927 73.7826 516.356 73.7338 511.632 73.7398C506.906 73.6432 502.18 73.5466 497.454 73.45C492.728 73.3534 488.361 73.2485 484.353 73.1354L485.395 118.399L534.179 116.352C534.016 118.204 533.542 119.91 532.756 121.468C531.971 123.027 531.067 123.921 530.045 124.149C522.55 124.219 515.108 124.339 507.718 124.509C500.325 124.577 492.932 124.593 485.537 124.558L486.607 171.053C495.635 170.64 505.019 170.116 514.76 169.481C524.499 168.744 534.8 167.89 545.664 166.921C545.41 169.289 544.842 171.356 543.958 173.122C543.072 174.786 542.072 175.938 540.957 176.58L474.138 178.118Z" fill="#CCAE3D"/>
<path d="M597.44 165.076C605.63 163.601 614.11 161.982 622.881 160.217C631.652 158.453 641.527 156.428 652.505 154.143C652.634 156.509 652.371 158.673 651.716 160.632C651.047 162.49 650.196 163.803 649.165 164.572L585.89 173.56L570.513 65.3068C573.709 62.9863 577.747 61.4795 582.626 60.7864L597.44 165.076Z" fill="black"/>
<path d="M674.748 161.714C675.791 152.507 676.886 142.702 678.034 132.298C679.155 121.795 680.303 111.391 681.477 101.087C682.724 90.6561 683.915 80.6127 685.05 70.9561C686.258 61.1739 687.308 52.3904 688.2 44.6056C689.674 43.361 691.349 42.2748 693.226 41.3472C695.104 40.4196 697.034 39.6903 699.018 39.1594L766.99 135.271C766.23 136.005 765.096 136.734 763.589 137.456C762.109 138.278 760.277 138.98 758.095 139.564C757.6 139.697 757.104 139.83 756.608 139.963C756.211 140.069 755.752 140.139 755.229 140.172L735.184 111.74L687.58 124.482C686.949 136.023 686.582 146.962 686.479 157.299C685.72 158.033 684.622 158.699 683.188 159.296C681.879 159.965 680.481 160.498 678.993 160.897C678.101 161.136 677.294 161.298 676.573 161.385C675.879 161.571 675.271 161.68 674.748 161.714ZM693.633 52.3977C692.578 62.3518 691.556 72.8283 690.568 83.8272C689.652 94.7004 688.812 105.659 688.049 116.704L730.744 105.277L693.633 52.3977Z" fill="#F0B890"/>
<path d="M76.1293 303.866C77.8142 308.654 78.6338 313.248 78.5879 317.649C78.5421 322.05 77.7327 326.121 76.1597 329.864C74.6755 333.575 72.4695 336.792 69.5418 339.517C66.7339 342.298 63.3349 344.391 59.3448 345.795C55.7093 347.075 52.4917 347.559 49.692 347.249C46.8922 346.939 44.7707 346.29 43.3273 345.303C42.9742 343.734 43.0775 341.904 43.6374 339.813C44.1973 337.723 45.1792 335.982 46.5831 334.591C48.3861 335.751 50.4658 336.563 52.8222 337.03C55.2098 337.584 57.7336 337.394 60.3937 336.458C62.0785 335.865 63.6408 335.066 65.0809 334.061C66.521 333.056 67.6277 331.67 68.401 329.903C69.2056 328.225 69.5569 326.108 69.455 323.553C69.4418 320.967 68.7799 317.812 67.4694 314.088L32.554 214.866C35.0072 212.209 38.3618 210.131 42.618 208.634L76.1293 303.866Z" fill="#C2CD93"/>
<path d="M105.778 241.15C106.419 249.114 107.969 256.062 110.427 261.994C112.979 267.918 116.112 272.853 119.824 276.797C123.53 280.648 127.718 283.47 132.389 285.263C137.153 287.048 142.065 287.737 147.125 287.329C157.9 286.461 165.941 282.089 171.248 274.211C176.648 266.326 178.752 254.982 177.56 240.178C176.979 232.963 175.564 226.523 173.316 220.857C171.06 215.097 168.126 210.288 164.515 206.43C160.99 202.47 156.841 199.551 152.069 197.672C147.39 195.785 142.24 195.069 136.618 195.521C132.121 195.884 127.832 197.078 123.751 199.104C119.764 201.123 116.322 204.041 113.423 207.858C110.61 211.573 108.485 216.224 107.049 221.809C105.606 227.301 105.182 233.748 105.778 241.15ZM93.6317 246.655C92.9902 238.691 93.7639 231.32 95.9528 224.542C98.2279 217.663 101.469 211.65 105.675 206.501C109.975 201.345 115.064 197.21 120.943 194.096C126.916 190.975 133.322 189.138 140.162 188.588C147.564 187.991 154.178 188.732 160.003 190.809C165.923 192.878 170.984 196.007 175.188 200.195C179.392 204.383 182.723 209.443 185.181 215.375C187.631 221.213 189.14 227.645 189.706 234.673C190.332 242.449 189.793 249.801 188.087 256.729C186.382 263.656 183.574 269.776 179.664 275.089C175.754 280.402 170.777 284.764 164.734 288.174C158.784 291.577 151.874 293.595 144.003 294.229C137.725 294.735 131.681 294.043 125.871 292.153C120.154 290.256 115.01 287.276 110.439 283.211C105.86 279.054 102.053 273.938 99.0179 267.864C96.0686 261.689 94.2732 254.619 93.6317 246.655Z" fill="#CCAE3D"/>
<path d="M294.311 304.911C292.668 305.437 290.805 305.63 288.722 305.491C286.713 305.462 284.649 305.23 282.532 304.795L292.49 256.316L237.381 244.996L227.877 291.265C226.234 291.791 224.371 291.984 222.288 291.844C220.279 291.815 218.216 291.583 216.098 291.148L236.241 193.086C239.712 192.071 243.658 192.018 248.077 192.926L238.715 238.504L293.823 249.824L302.675 206.732C306.146 205.718 310.092 205.665 314.511 206.573L294.311 304.911Z" fill="#F0B890"/>
<path d="M405.898 336.98C405.26 337.343 404.369 337.518 403.226 337.504C402.066 337.582 401.069 337.547 400.237 337.398L351.682 237.449C350.481 244.682 349.297 251.823 348.129 258.872C347.054 265.937 345.933 272.994 344.765 280.042C343.69 287.108 342.598 294.265 341.49 301.515C340.491 308.69 339.496 316.104 338.507 323.757C337.356 324.315 335.722 324.643 333.603 324.74C331.485 324.838 329.5 324.721 327.65 324.39C329.278 316.373 330.864 308.588 332.409 301.034C333.97 293.387 335.548 285.648 337.142 277.817C338.753 269.893 340.406 261.737 342.1 253.351C343.81 244.871 345.667 235.845 347.669 226.272C349.374 225.814 351.24 225.528 353.266 225.413C355.385 225.315 357.415 225.441 359.358 225.789L403.085 316.708C405.354 302.981 407.535 289.477 409.629 276.196C411.815 262.932 413.73 250.383 415.373 238.549C417.112 237.906 418.939 237.565 420.856 237.526C422.882 237.412 424.682 237.495 426.255 237.777C423.139 252.499 419.887 268.246 416.499 285.019C413.111 301.793 409.578 319.113 405.898 336.98Z" fill="#313D3B"/>
<path d="M446.829 317.287C447.714 315.842 449.214 314.467 451.327 313.163C453.441 311.859 455.529 311.121 457.592 310.948C457.975 313.567 458.829 316.215 460.154 318.892C461.476 321.476 463.306 323.804 465.643 325.878C468.071 327.855 471.002 329.483 474.438 330.762C477.87 331.947 481.934 332.45 486.63 332.27C493.487 332.007 498.869 330.061 502.774 326.43C506.677 322.706 508.518 317.979 508.298 312.249C508.089 306.801 506.508 302.347 503.553 298.885C500.598 295.424 495.374 292.896 487.882 291.302L474.508 288.428C471.094 287.712 467.863 286.849 464.813 285.837C461.764 284.825 459.079 283.47 456.756 281.771C454.429 279.979 452.558 277.793 451.143 275.214C449.817 272.536 449.08 269.272 448.933 265.421C448.785 261.57 449.582 257.824 451.324 254.182C453.066 250.541 455.528 247.295 458.711 244.445C461.985 241.497 465.797 239.094 470.147 237.234C474.59 235.37 479.395 234.339 484.562 234.141C489.728 233.943 494.168 234.431 497.882 235.606C501.595 236.781 504.615 238.264 506.942 240.056C509.268 241.848 510.991 243.852 512.111 246.067C513.321 248.184 514.052 250.084 514.305 251.768C513.698 253.108 512.523 254.376 510.782 255.571C509.037 256.673 506.995 257.41 504.658 257.782C504.203 255.73 503.421 253.737 502.312 251.804C501.2 249.777 499.627 248.003 497.593 246.482C495.65 244.863 493.249 243.591 490.391 242.666C487.534 241.741 484.18 241.352 480.328 241.5C473.941 241.745 468.887 243.632 465.165 247.161C461.44 250.596 459.682 255.038 459.891 260.486C460.01 263.585 460.578 266.15 461.597 268.181C462.612 270.117 463.992 271.758 465.736 273.102C467.477 274.352 469.491 275.357 471.778 276.116C474.159 276.871 476.724 277.525 479.473 278.078L491.991 280.703C497.207 281.82 501.542 283.253 504.996 285.002C508.543 286.747 511.347 288.709 513.406 290.888C515.465 293.067 516.922 295.504 517.778 298.199C518.724 300.796 519.251 303.504 519.359 306.322C519.521 310.549 518.784 314.622 517.147 318.542C515.51 322.461 513.058 325.989 509.792 329.124C506.522 332.166 502.526 334.671 497.804 336.639C493.172 338.51 487.897 339.559 481.98 339.786C476.25 340.005 471.243 339.445 466.958 338.104C462.674 336.763 459.079 335.019 456.175 332.873C453.267 330.633 451.008 328.133 449.397 325.372C447.88 322.608 447.024 319.913 446.829 317.287Z" fill="#E43C2F"/>
<path d="M553.632 278.634C554.943 286.516 557.073 293.308 560.023 299.012C563.065 304.7 566.603 309.352 570.635 312.97C574.652 316.494 579.063 318.953 583.868 320.345C588.767 321.722 593.72 321.994 598.727 321.161C609.39 319.388 617.034 314.352 621.657 306.055C626.373 297.743 627.513 286.261 625.076 271.611C623.888 264.471 621.935 258.173 619.217 252.717C616.484 247.168 613.155 242.624 609.231 239.084C605.384 235.435 601.004 232.876 596.09 231.407C591.269 229.921 586.077 229.642 580.513 230.567C576.063 231.307 571.89 232.859 567.995 235.222C564.192 237.57 561.008 240.768 558.441 244.816C555.952 248.755 554.227 253.569 553.267 259.255C552.292 264.849 552.413 271.309 553.632 278.634ZM541.993 285.144C540.682 277.262 540.831 269.852 542.441 262.914C544.128 255.868 546.849 249.602 550.606 244.118C554.456 238.618 559.179 234.068 564.774 230.469C570.462 226.855 576.691 224.485 583.46 223.359C590.785 222.14 597.438 222.32 603.418 223.899C609.49 225.461 614.798 228.152 619.34 231.97C623.882 235.789 627.628 240.55 630.578 246.253C633.512 251.864 635.558 258.146 636.714 265.101C637.994 272.797 638.077 280.168 636.962 287.215C635.847 294.261 633.566 300.596 630.118 306.22C626.67 311.844 622.078 316.61 616.344 320.518C610.702 324.411 603.987 327.005 596.198 328.3C589.985 329.333 583.904 329.154 577.955 327.761C572.099 326.353 566.722 323.817 561.824 320.153C556.911 316.396 552.686 311.619 549.149 305.823C545.689 299.919 543.304 293.026 541.993 285.144Z" fill="black"/>
<path d="M758.121 284.506C757.725 285.124 757.018 285.693 756 286.213C755.01 286.823 754.112 287.256 753.305 287.512L663.796 221.667C666.102 228.627 668.379 235.499 670.627 242.28C672.966 249.033 675.259 255.801 677.508 262.582C679.846 269.335 682.213 276.178 684.608 283.11C687.064 289.925 689.636 296.949 692.324 304.183C691.566 305.212 690.272 306.263 688.443 307.336C686.613 308.409 684.803 309.23 683.01 309.798C680.718 301.946 678.497 294.317 676.347 286.913C674.168 279.419 671.961 271.835 669.725 264.162C667.461 256.399 665.126 248.412 662.72 240.202C660.286 231.901 657.726 223.049 655.04 213.645C656.336 212.445 657.854 211.323 659.594 210.278C661.423 209.205 663.279 208.37 665.16 207.774L746.192 267.875C741.808 254.67 737.451 241.704 733.12 228.976C728.878 216.219 724.729 204.222 720.674 192.984C721.913 191.605 723.372 190.452 725.05 189.526C726.79 188.481 728.421 187.717 729.944 187.235C734.042 201.713 738.496 217.163 743.308 233.585C748.12 250.007 753.058 266.98 758.121 284.506Z" fill="#8CA16A"/>
</svg>
