<svg width="569" height="75" viewBox="0 0 569 75" fill="none" xmlns="http://www.w3.org/2000/svg">
<path d="M35.2367 40.8366C35.0853 41.5173 33.8428 41.598 31.5092 41.0789L30.3424 40.8193L29.1568 40.53C26.9852 40.047 25.5043 39.6325 24.7138 39.2865C23.9234 38.9406 23.5877 38.5003 23.7066 37.9655C23.7391 37.8197 24.093 37.4902 24.7684 36.9772C25.46 36.4677 26.0607 35.717 26.5705 34.7249C27.0803 33.7329 27.6308 31.908 28.2221 29.2503C28.8133 26.5926 28.8749 24.9396 28.4069 24.2912C27.9586 23.6303 25.7089 22.8492 21.6575 21.9479C17.6224 21.0502 15.2023 20.8435 14.3973 21.3277C13.8696 21.6355 13.2921 23.1993 12.6648 26.019C12.0375 28.8387 11.7238 30.7078 11.7236 31.6261C11.7396 32.5481 11.8637 33.29 12.0958 33.8519L12.4576 34.5191C12.8338 35.1981 13.0111 35.5862 12.9894 35.6834C12.8597 36.2668 12.2717 36.5016 11.2255 36.388C10.7609 36.3356 8.93242 35.9544 5.73995 35.2442C2.56369 34.5376 1.05668 33.8197 1.21891 33.0904C1.30543 32.7015 2.06453 32.2326 3.4962 31.6837C4.44525 31.3166 5.10355 30.6892 5.47109 29.8015C5.84224 28.8977 6.79209 25.0102 8.32064 18.1391C9.8492 11.268 10.6127 7.26252 10.6112 6.12269C10.6096 4.98285 10.184 4.02928 9.33423 3.26199C8.50428 2.48211 8.14159 1.85718 8.24613 1.38723C8.38673 0.755214 10.4827 0.889844 14.5341 1.79111L16.8919 2.31565C19.1607 2.82036 20.2104 3.45355 20.0409 4.2152C20.0265 4.28002 19.6663 4.59956 18.9603 5.17382C18.2579 5.73188 17.6815 6.48804 17.2311 7.4423C16.8005 8.38397 16.3329 9.98918 15.8282 12.2579C15.3235 14.5267 15.2826 15.9717 15.7056 16.5931C16.1287 17.2144 18.3415 17.9703 22.3443 18.8608C26.3632 19.7548 28.7176 19.9894 29.4073 19.5646C29.899 19.2658 30.4206 17.8767 30.9722 15.3973C31.5274 12.9017 31.7915 11.2937 31.7647 10.5734C31.754 9.85674 31.6227 9.22377 31.3708 8.6745L30.9847 8.00185C30.6013 7.35531 30.4294 6.94292 30.4691 6.76466C30.606 6.14885 31.1328 5.88337 32.0493 5.96821C32.9659 6.05305 34.9637 6.43796 38.0427 7.12292C41.1217 7.80789 42.5873 8.48258 42.4395 9.147C42.3278 9.64937 41.9351 10.0382 41.2616 10.3136C39.7507 10.9129 38.9097 11.3295 38.7385 11.5636C38.3224 12.1343 37.5033 15.1665 36.2812 20.6601L33.4397 32.6305C32.9386 34.883 32.7375 36.3605 32.8364 37.0627C32.9352 37.765 33.2304 38.3494 33.7219 38.8159C34.8003 39.8552 35.3052 40.5287 35.2367 40.8366Z" fill="#B98348"/>
<path d="M56.6793 13.4077C56.5392 14.1246 56.0991 14.7321 55.3589 15.2302C54.6383 15.7153 53.9765 15.8989 53.3736 15.7811C53.2369 15.7882 53.1278 15.7838 53.0464 15.7678L52.4991 15.7116C51.6845 15.5524 51.0038 15.1403 50.4572 14.4752C49.9268 13.8134 49.7444 13.0588 49.91 12.2116L49.996 11.7716C50.1616 10.9244 50.6341 10.2809 51.4136 9.84119C52.2125 9.38838 53.0519 9.24794 53.9318 9.4199L54.054 9.44378L54.8658 9.70394C55.3709 9.80266 55.8382 10.1815 56.2676 10.8406C56.7165 11.4865 56.8868 12.0865 56.7785 12.6405L56.7844 12.87L56.6793 13.4077ZM46.7771 22.789C46.0094 22.216 45.6607 21.7504 45.7307 21.3919C45.8008 21.0335 46.0276 20.7818 46.4111 20.6368C47.7406 20.1524 49.6926 20.1617 52.2669 20.6648L52.9757 20.8033C53.8555 20.9753 54.2729 21.4798 54.2277 22.3167C54.2069 22.7694 53.6599 25.7411 52.5868 31.232C51.5169 36.7065 51.0164 39.8734 51.0852 40.7327C51.1573 41.5756 51.5821 42.3014 52.3597 42.9101C53.1405 43.5025 53.4878 44.0187 53.4019 44.4586C53.2809 45.0777 51.2 44.9925 47.1593 44.2027L46.4213 44.0839L43.4396 43.5012C42.2502 43.2687 41.7128 42.8592 41.8274 42.2726C41.923 41.7838 42.3738 41.3814 43.1798 41.0653C44.0022 40.7524 44.606 40.346 44.9913 39.8461C45.4186 39.3038 45.8489 37.9247 46.2819 35.7088L46.4592 34.9315L46.6073 34.1738L46.8562 33.0299L47.0043 32.2723L47.1768 31.5194C47.9315 27.6579 48.2406 25.384 48.1041 24.6976C47.9871 23.9981 47.5447 23.3619 46.7771 22.789Z" fill="#B98348"/>
<path d="M64.9155 45.1887L64.7676 45.9971C64.4388 47.7934 63.5104 49.4547 61.9821 50.9808C59.8964 53.0632 58.2167 53.9878 56.9429 53.7547L56.7959 53.7278C56.2244 53.6232 55.9879 53.3015 56.0865 52.7626L56.1134 52.6156L58.3275 50.6158C59.1777 49.8431 59.6925 48.9669 59.8718 47.9871C59.9227 47.7095 59.5812 47.0394 58.8474 45.9768C58.1136 44.9143 57.8244 43.9584 57.9798 43.1093C58.1352 42.2601 58.5473 41.576 59.2161 41.0571C59.9013 40.5411 60.6929 40.3653 61.5911 40.5297L62.2035 40.6418C63.2323 40.8301 63.9927 41.3321 64.4847 42.1479C64.9961 42.9503 65.1397 43.9639 64.9155 45.1887Z" fill="#B98348"/>
<path d="M101.974 49.0234C102.201 48.4026 102.593 46.2203 103.151 42.4765C103.709 38.7327 103.786 36.2432 103.383 35.0082C102.98 33.7731 101.998 33.0393 100.438 32.8069C99.502 32.6674 98.4781 32.8924 97.3664 33.4821C96.2571 34.0553 95.4721 34.7608 95.0116 35.5985C94.551 36.4363 94.0785 38.4807 93.5939 41.7319C93.1119 44.9667 92.8392 46.9655 92.7758 47.7281C92.729 48.4932 92.764 49.1027 92.881 49.5566L93.1094 50.22C93.2963 50.7682 93.3726 51.1573 93.3383 51.3871C93.2478 51.9947 91.9464 52.1113 89.4341 51.7368C86.9218 51.3624 85.3259 50.8644 84.6464 50.2428L84.2728 49.7088C84.3414 49.249 84.5643 48.8794 84.9416 48.5999C86.0761 47.7451 86.7728 47.0685 87.0318 46.5699C87.2907 46.0714 87.7273 43.7614 88.3415 39.6399C88.9582 35.502 89.0077 32.7483 88.4901 31.3787L88.072 30.6366C87.7258 30.0311 87.5735 29.5888 87.6151 29.3097C87.6592 29.0141 88.0131 28.7228 88.6769 28.4356C89.3596 28.1345 90.3496 28.0807 91.6468 28.274C92.9604 28.4698 93.893 28.9696 94.4446 29.7736C94.9986 30.5611 95.4152 30.9757 95.6943 31.0173L96.4846 30.7826L98.5217 29.9532C100.169 29.3762 101.78 29.2052 103.357 29.4401C104.933 29.675 106.363 30.3833 107.647 31.565C108.934 32.7303 109.758 33.3398 110.119 33.3937L111.015 33.1244L112.008 32.7184C112.848 32.3736 113.738 32.0867 114.679 31.8576C115.586 31.6236 116.746 31.6118 118.158 31.8223C120.851 32.2236 122.59 33.6241 123.373 36.0236C123.95 37.788 123.788 41.6915 122.887 47.7341C122.5 50.3285 122.357 51.8514 122.458 52.3028C122.561 52.7378 122.93 53.3047 123.564 54.0035C124.198 54.7023 124.508 55.101 124.494 55.1995L124.406 55.7906L123.872 56.1642C123.012 56.5229 120.974 56.4625 117.755 55.9828C116.212 55.7528 115.496 55.2601 115.609 54.5048C115.621 54.4227 115.783 54.0691 116.094 53.4441C116.422 52.8216 116.632 52.3157 116.723 51.9265C116.834 51.5234 117.17 49.4335 117.733 45.6568C118.296 41.8802 118.46 39.4875 118.224 38.4789C118.007 37.4562 117.657 36.6488 117.175 36.0566C116.711 35.4504 115.921 35.0641 114.805 34.8976C113.688 34.7312 112.699 34.8943 111.836 35.3868C110.974 35.8794 110.331 36.48 109.906 37.1889C109.484 37.8813 108.993 40.1076 108.432 43.8678C107.872 47.6281 107.663 49.8209 107.804 50.4463C107.949 51.0552 108.291 51.6854 108.832 52.3366C109.389 52.9904 109.654 53.4075 109.627 53.5882C109.505 54.4092 108.007 54.6055 105.134 54.1773L101.685 53.6634C99.9612 53.4064 99.1358 53.0317 99.2092 52.5391C99.2851 52.03 99.5707 51.5774 100.066 51.1813C101.13 50.3496 101.766 49.6303 101.974 49.0234Z" fill="#B98348"/>
<path d="M139.667 38.2854C139.444 40.0476 140.281 44.4042 142.178 51.3549C142.44 52.3252 142.687 52.825 142.917 52.8542C143.148 52.8834 143.66 52.2706 144.455 51.0158C147.337 46.4945 148.934 43.0068 149.245 40.5528C149.334 39.8446 149.292 39.2535 149.118 38.7796L148.902 38.3005C148.574 37.7234 148.423 37.3278 148.45 37.1137C148.532 36.4713 149.618 36.2827 151.71 36.5476L153.291 36.7479C155.284 37.0003 156.232 37.5053 156.136 38.2629C156.082 38.6912 155.587 39.2978 154.651 40.0829C153.733 40.8536 153.041 41.6277 152.574 42.4053C152.108 43.1829 150.346 46.4572 147.289 52.2282C144.25 57.9847 141.965 61.8873 140.434 63.9357C138.901 66.0006 137.529 67.45 136.319 68.2841C135.125 69.1202 133.96 69.4663 132.824 69.3224L132.182 69.241C131.325 69.1325 130.623 68.7926 130.077 68.2213C129.544 67.6686 129.311 67.1287 129.378 66.6017C129.443 66.0911 129.702 65.6972 130.155 65.42C130.623 65.1613 131.203 65.0757 131.895 65.1634L132.457 65.2847C132.702 65.3325 133.079 65.3887 133.59 65.4534C134.743 65.5994 135.899 64.9928 137.059 63.6336C138.218 62.2744 138.894 60.8372 139.086 59.322C139.278 57.8067 137.656 51.7861 134.22 41.2602C133.906 40.3001 133.391 39.281 132.674 38.2029C131.974 37.1268 131.647 36.3994 131.695 36.0206C131.775 35.3947 132.266 35.0136 133.171 34.8771C134.077 34.7241 135.494 34.7697 137.421 35.0138C139.364 35.2599 140.283 35.803 140.176 36.643C139.87 37.4744 139.7 38.0218 139.667 38.2854Z" fill="#B98348"/>
<path d="M175.299 63.1632C172.97 62.9288 171.839 62.4811 171.905 61.8204C171.96 61.2753 172.311 60.8601 172.957 60.5748C174.127 60.0585 174.827 59.5617 175.059 59.0845C175.292 58.5907 175.623 56.213 176.052 51.9514C176.483 47.6732 176.603 45.1574 176.412 44.404C176.239 43.6357 175.838 42.978 175.209 42.4308C174.58 41.8836 174.28 41.4613 174.31 41.164C174.34 40.8667 174.591 40.6083 175.064 40.3889C176.166 39.8825 177.849 39.7432 180.112 39.9711C180.789 40.0393 181.294 40.3237 181.628 40.8245C181.743 41.003 181.888 41.3847 182.063 41.9696C182.256 42.5396 182.394 42.8288 182.476 42.8371C182.792 42.8522 183.301 42.6782 184.005 42.3153C186.44 41.0086 188.582 40.4484 190.432 40.6347L190.481 40.6397L191.274 40.7195C192.612 40.8542 193.785 41.306 194.792 42.0748C195.799 42.8436 196.525 43.9178 196.97 45.2975C197.432 46.6788 197.439 49.5911 196.991 54.0345C196.546 58.4613 196.387 60.9482 196.516 61.4951C196.662 62.0271 197.151 62.5601 197.981 63.0943C198.829 63.6301 199.23 64.1127 199.187 64.5422C199.112 65.2855 196.729 65.421 192.038 64.9487L191.295 64.8738C189.808 64.7242 189.101 64.2942 189.172 63.5839C189.187 63.4353 189.405 63.0984 189.825 62.5734C190.246 62.0318 190.558 61.4208 190.76 60.7404C190.962 60.0599 191.258 57.7871 191.647 53.9219C192.038 50.0401 192.049 47.5218 191.682 46.3668C191.174 44.7807 190.152 43.9102 188.616 43.7556C187.492 43.6425 186.376 43.797 185.265 44.2192C184.173 44.6264 183.339 45.285 182.764 46.1948C182.207 47.0898 181.747 49.3377 181.384 52.9387C181.023 56.5231 180.904 58.7052 181.025 59.485C181.149 60.2482 181.327 60.8753 181.562 61.366L182.329 62.945C182.264 63.5892 180.935 63.7807 178.342 63.5196L176.835 63.3179L175.299 63.1632Z" fill="#B98348"/>
<path d="M216.571 55.7384L216.149 55.7026C213.982 55.5191 212.129 55.8536 210.591 56.7063C209.07 57.5438 208.249 58.6822 208.127 60.1214L208.085 60.6176C208.014 61.4613 208.206 62.244 208.661 62.9656C209.134 63.6722 209.785 64.0605 210.612 64.1306L210.905 64.2054L211.65 64.2685C213.37 64.4142 214.836 63.8303 216.047 62.5166C216.578 61.9452 216.925 60.7083 217.086 58.806C217.098 58.6571 217.111 58.5082 217.124 58.3593L217.199 57.7659L217.249 57.1704C217.326 56.2605 217.1 55.7832 216.571 55.7384ZM205.191 46.7021C205.294 45.4779 206.354 44.4681 208.371 43.6726C210.406 42.862 212.465 42.5449 214.55 42.7215C214.616 42.7271 214.682 42.7327 214.748 42.7383C216.733 42.9065 218.301 43.2809 219.451 43.8615C221.785 45.0255 222.994 47.1772 223.078 50.3166C223.085 50.6337 222.925 52.7195 222.598 56.5738C222.273 60.4116 222.182 62.6698 222.324 63.3483C222.483 64.0282 223.004 64.5639 223.887 64.9552C224.787 65.348 225.225 65.685 225.201 65.9662C225.151 66.5618 224.815 66.9915 224.192 67.2553C222.948 67.783 221.747 67.9978 220.589 67.8997C219.448 67.803 218.618 67.4662 218.101 66.8892C217.171 65.8608 216.674 65.3438 216.607 65.3382C216.541 65.3326 215.571 65.6753 213.696 66.3662C211.823 67.0405 210.208 67.3203 208.852 67.2054C206.817 67.033 205.268 66.3353 204.206 65.1124C203.143 63.8894 202.68 62.4756 202.816 60.871L202.868 60.2507C203.014 58.5303 203.887 57.0797 205.486 55.899C207.086 54.7183 209.852 53.9279 213.784 53.528C215.213 53.3824 216.119 53.2092 216.502 53.0085C217.269 52.6069 217.713 51.6949 217.834 50.2722C217.954 48.8496 217.666 47.7256 216.97 46.9002C216.273 46.0748 215.288 45.6081 214.014 45.5002C212.741 45.3923 211.445 46.0323 210.128 47.4202C208.829 48.793 207.691 49.438 206.715 49.3554C205.557 49.2573 205.049 48.3728 205.191 46.7021Z" fill="#B98348"/>
<path d="M247.613 65.0474C247.787 64.4097 247.994 62.2021 248.234 58.4246C248.475 54.647 248.342 52.16 247.836 50.9633C247.33 49.7667 246.289 49.1183 244.716 49.0182C243.771 48.9581 242.77 49.2687 241.712 49.95C240.655 50.6147 239.932 51.3838 239.544 52.2574C239.156 53.131 238.857 55.2081 238.648 58.4885C238.441 61.7525 238.338 63.7671 238.339 64.5324C238.357 65.2987 238.443 65.9031 238.598 66.3454L238.881 66.9873C239.114 67.5177 239.223 67.899 239.208 68.1309C239.169 68.7439 237.882 68.9698 235.347 68.8086C232.812 68.6473 231.18 68.2857 230.45 67.7236L230.033 67.2229C230.063 66.759 230.254 66.3719 230.606 66.0617C231.664 65.1142 232.302 64.3812 232.518 63.8626C232.734 63.3441 232.974 61.0055 233.238 56.8469C233.504 52.6717 233.321 49.9236 232.69 48.6026L232.211 47.8984C231.815 47.3242 231.626 46.8963 231.643 46.6146C231.662 46.3164 231.991 45.9963 232.628 45.6542C233.283 45.2966 234.265 45.1594 235.573 45.2427C236.899 45.327 237.87 45.7465 238.488 46.501C239.106 47.2391 239.556 47.617 239.838 47.6349L240.606 47.3344L242.566 46.3362C244.158 45.6224 245.749 45.3161 247.34 45.4172C248.931 45.5184 250.415 46.1036 251.795 47.1728C253.175 48.2254 254.047 48.7634 254.412 48.7865L255.282 48.4427L256.236 47.9544C257.045 47.54 257.908 47.179 258.826 46.8714C259.71 46.5618 260.865 46.4522 262.29 46.5429C265.007 46.7157 266.857 47.9646 267.841 50.2895C268.564 51.999 268.731 55.9023 268.343 61.9993C268.177 64.6171 268.163 66.1466 268.301 66.5879C268.44 67.0127 268.856 67.5464 269.547 68.1893C270.238 68.8321 270.58 69.2032 270.574 69.3026L270.536 69.8991L270.035 70.3164C269.209 70.7462 267.173 70.8579 263.925 70.6514C262.368 70.5523 261.614 70.1217 261.662 69.3596C261.667 69.2767 261.799 68.9108 262.056 68.2618C262.33 67.6138 262.497 67.092 262.555 66.6965C262.631 66.2855 262.79 64.1746 263.033 60.364C263.275 56.5533 263.236 54.1554 262.916 53.1702C262.614 52.1695 262.198 51.3944 261.667 50.845C261.154 50.28 260.334 49.9617 259.207 49.8901C258.081 49.8184 257.109 50.0643 256.291 50.6278C255.473 51.1913 254.883 51.8441 254.52 52.5862C254.157 53.3117 253.856 55.5715 253.614 59.3656C253.373 63.1597 253.349 65.3624 253.543 65.9736C253.738 66.5682 254.133 67.1672 254.726 67.7706C255.337 68.375 255.636 68.7683 255.625 68.9506C255.572 69.779 254.096 70.101 251.196 69.9165L247.717 69.6952C245.977 69.5846 245.123 69.2807 245.155 68.7837C245.188 68.2701 245.434 67.795 245.894 67.3585C246.884 66.44 247.457 65.6696 247.613 65.0474Z" fill="#B98348"/>
<path d="M292.705 56.018L292.739 55.2468C292.794 54.0195 292.404 52.8969 291.569 51.879C290.735 50.8445 289.679 50.2986 288.402 50.2414L287.929 50.2202C287.696 50.2429 287.537 50.2525 287.454 50.2488C286.293 50.1967 285.161 50.8106 284.056 52.0906C282.969 53.3713 282.391 54.7662 282.323 56.2755L282.309 56.5989C282.285 57.1296 282.588 57.4091 283.218 57.4373C283.465 57.4982 283.597 57.5291 283.613 57.5298L284.184 57.5803L284.333 57.587L284.509 57.57L289.322 57.5116L290.222 57.4522C291.831 57.5244 292.658 57.0463 292.705 56.018ZM282.06 62.1465C281.975 64.0372 282.617 65.653 283.986 66.994C285.355 68.335 287.135 69.0546 289.324 69.1527C290.203 69.1921 291.004 69.1034 291.729 68.8866C292.47 68.654 293.272 68.3742 294.135 68.0473C295.013 67.7211 295.56 67.5628 295.776 67.5725C296.439 67.6022 296.755 67.9737 296.723 68.6868C296.68 69.6487 295.407 70.622 292.903 71.6065C291.279 72.2483 289.555 72.5283 287.73 72.4465L287.183 72.4219C284.065 72.2821 281.52 71.2208 279.548 69.2379C278.483 68.1598 277.68 66.811 277.137 65.1913C276.596 63.555 276.366 61.8165 276.449 59.9755L276.5 59.4045L276.525 58.8323C276.597 57.2401 277.032 55.6892 277.831 54.1795C278.646 52.6706 279.59 51.4417 280.663 50.4927C282.929 48.5004 285.556 47.5629 288.542 47.6801C293.053 47.8824 295.976 49.775 297.311 53.3579C297.725 54.4899 297.912 55.5203 297.87 56.4491L297.848 56.9466C297.797 58.091 297.289 58.841 296.326 59.1966C295.364 59.5357 293.119 59.7508 289.592 59.8419C286.065 59.933 284.15 60.0134 283.848 60.0829C282.707 60.3143 282.111 61.0022 282.06 62.1465Z" fill="#B98348"/>
<path d="M326.608 41.4075C326.589 42.1377 326.256 42.8098 325.608 43.4237C324.978 44.0215 324.356 44.3123 323.742 44.296C323.608 44.3257 323.5 44.3394 323.417 44.3372L322.868 44.3725C322.038 44.3506 321.299 44.057 320.649 43.4918C320.017 42.927 319.712 42.2131 319.734 41.3501L319.746 40.902C319.769 40.0391 320.128 39.3261 320.824 38.7633C321.537 38.1843 322.342 37.9067 323.238 37.9304L323.362 37.9337L324.206 38.0556C324.72 38.0692 325.244 38.3654 325.777 38.9442C326.327 39.5068 326.594 40.0702 326.579 40.6344L326.623 40.8598L326.608 41.4075ZM318.398 52.3005C317.546 51.8628 317.125 51.4614 317.135 51.0963C317.145 50.7312 317.326 50.4454 317.681 50.2388C318.912 49.5407 320.838 49.2263 323.46 49.2957L324.182 49.3148C325.078 49.3385 325.573 49.7668 325.668 50.5997C325.722 51.0495 325.675 54.0708 325.527 59.6636C325.38 65.2397 325.411 68.4458 325.622 69.2817C325.832 70.1011 326.372 70.7464 327.239 71.2178C328.108 71.6726 328.536 72.124 328.524 72.5721C328.507 73.2027 326.441 73.4636 322.325 73.3547L321.578 73.3598L318.541 73.2794C317.329 73.2474 316.731 72.9326 316.747 72.3352C316.76 71.8373 317.138 71.3657 317.881 70.9203C318.64 70.4754 319.168 69.9745 319.465 69.4178C319.797 68.8121 319.992 67.3807 320.052 65.1237L320.098 64.3277L320.118 63.556L320.174 62.3867L320.195 61.615L320.24 60.8439C320.344 56.9108 320.272 54.617 320.023 53.9628C319.792 53.2923 319.25 52.7383 318.398 52.3005Z" fill="#B98348"/>
<path d="M346.753 62.6124C348.044 63.8783 348.675 65.4657 348.644 67.3747C348.614 69.267 347.808 70.8813 346.226 72.2175C344.644 73.5372 342.475 74.175 339.72 74.131L339.047 74.1203C335.91 74.0702 333.526 73.6419 331.895 72.8355C330.989 72.3894 330.548 71.4193 330.572 69.9253L330.582 69.3029C330.612 67.3939 330.984 66.4452 331.698 66.4566C332.296 66.4661 332.992 67.0417 333.788 68.1835C334.583 69.3086 335.252 70.0665 335.793 70.457C336.844 71.2044 338.083 71.5894 339.511 71.6122C340.955 71.6353 342.022 71.3534 342.712 70.7667C343.403 70.1634 343.756 69.3638 343.772 68.3678C343.788 67.3718 343.221 66.4413 342.073 65.5762C341.466 65.1182 340.041 64.3898 337.799 63.391C335.574 62.3924 333.913 61.3614 332.818 60.2979C331.722 59.2177 331.19 57.7149 331.221 55.7894C331.252 53.8638 332.082 52.3163 333.711 51.1469C335.34 49.9608 337.334 49.3866 339.691 49.4243L340.363 49.435C343.451 49.4843 345.611 49.8841 346.844 50.6343C347.486 51.0264 347.792 52.094 347.764 53.8369C347.737 55.5799 347.308 56.4447 346.478 56.4315C346.013 56.424 345.382 55.8992 344.585 54.8571C343.805 53.7986 343.086 53.0483 342.429 52.6061C341.773 52.1473 340.855 51.9085 339.676 51.8897C338.514 51.8711 337.589 52.122 336.9 52.6423C336.211 53.1626 335.858 53.9291 335.842 54.9417C335.826 55.9376 336.434 56.8439 337.666 57.6606C337.978 57.8814 339.346 58.5425 341.769 59.6438C344.192 60.7451 345.853 61.7347 346.753 62.6124Z" fill="#B98348"/>
<path d="M391.378 63.2288C391.61 63.2256 393.177 59.9834 396.078 53.502C398.978 47.0041 400.77 43.2191 401.452 42.1473C402.135 41.0754 402.931 40.3507 403.839 39.9731C404.746 39.5789 406.196 39.3683 408.188 39.3413C410.197 39.314 411.208 39.7652 411.22 40.6948L410.633 41.4499L409.872 42.2821C409.383 42.9363 409.036 43.6964 408.832 44.5625C408.644 45.4118 408.564 46.8159 408.59 48.7747C408.703 57.1079 409.002 63.1806 409.485 66.9928C409.671 68.4845 410.227 69.6558 411.151 70.5066C412.076 71.3408 412.54 71.899 412.544 72.1812L411.928 72.6379C411.136 73.0139 409.569 73.2178 407.229 73.2495C404.888 73.2813 403.415 72.9941 402.809 72.388L402.553 71.8436C402.546 71.3622 402.715 70.372 403.06 68.8731C403.405 67.3575 403.567 65.8527 403.547 64.3587C403.399 53.4691 402.977 48.029 402.279 48.0385C401.931 48.0432 400.391 51.4345 397.661 58.2124C394.93 64.9903 393.249 68.973 392.618 70.1603C392.003 71.3309 391.172 71.9233 390.126 71.9375C389.396 71.9474 387.342 67.9905 383.963 60.0669C380.601 52.1264 378.638 48.16 378.074 48.1676C377.609 48.1739 377.432 52.2524 377.543 60.403C377.592 64.0218 377.68 66.2454 377.807 67.0739C377.935 67.9023 378.139 68.8957 378.421 70.0541C378.719 71.2123 378.87 71.9823 378.875 72.3641C378.881 72.7459 378.628 73.0648 378.116 73.3207C377.605 73.5767 376.943 73.7102 376.129 73.7213L374.76 73.7398C372.021 73.777 370.647 73.447 370.637 72.7498C370.632 72.4012 371.089 71.8222 372.008 71.0128C372.943 70.1865 373.482 69.4819 373.623 68.8989C373.781 68.299 373.956 65.3081 374.149 59.9261C374.341 54.5274 374.425 50.8653 374.399 48.9397C374.372 47.0141 374.238 45.6794 373.996 44.9355C373.753 44.1751 373.202 43.3856 372.345 42.5671C371.503 41.7484 371.08 41.1232 371.074 40.6916C371.067 40.1604 372.599 39.874 375.67 39.8323C376.848 39.8163 377.871 39.9684 378.739 40.2887C379.607 40.5924 380.464 41.3528 381.31 42.57C382.173 43.7703 383.984 47.5146 386.742 53.803C389.501 60.0913 391.046 63.2333 391.378 63.2288Z" fill="#B98348"/>
<path d="M424.784 41.2246C424.806 41.9548 424.51 42.6445 423.899 43.2938C423.303 43.926 422.698 44.2512 422.084 44.2694C421.952 44.3065 421.845 44.3263 421.762 44.3288L421.216 44.3948C420.386 44.4194 419.631 44.1677 418.951 43.6398C418.288 43.1114 417.943 42.4157 417.918 41.5528L417.904 41.1048C417.879 40.2419 418.197 39.51 418.861 38.909C419.54 38.2909 420.327 37.9686 421.224 37.942L421.348 37.9383L422.197 38.0128C422.712 37.9975 423.251 38.2639 423.815 38.8119C424.396 39.3427 424.694 39.8903 424.711 40.4545L424.768 40.677L424.784 41.2246ZM417.198 52.561C416.322 52.1717 415.879 51.7945 415.869 51.4294C415.858 51.0644 416.023 50.7688 416.365 50.5427C417.555 49.7767 419.461 49.3548 422.083 49.277L422.805 49.2556C423.701 49.229 424.219 49.6289 424.36 50.4551C424.44 50.9012 424.562 53.9204 424.728 59.5126C424.894 65.0883 425.105 68.2876 425.362 69.1104C425.618 69.9166 426.193 70.5307 427.086 70.9527C427.978 71.358 428.431 71.7848 428.444 72.2328C428.463 72.8634 426.414 73.2397 422.299 73.3617L421.553 73.4088L418.516 73.4988C417.305 73.5348 416.69 73.254 416.672 72.6566C416.658 72.1588 417.009 71.6668 417.725 71.1805C418.458 70.6937 418.957 70.164 419.222 69.5914C419.519 68.9681 419.635 67.528 419.568 65.2712L419.569 64.4739L419.546 63.7023L419.536 62.5317L419.513 61.76L419.515 60.9877C419.399 57.0548 419.198 54.7687 418.913 54.1294C418.645 53.473 418.073 52.9502 417.198 52.561Z" fill="#B98348"/>
<path d="M442.077 62.0638C441.066 62.1083 440.624 63.59 440.752 66.5091C440.797 67.5374 441.082 68.5303 441.606 69.4877L442.328 70.6026C442.578 71.007 442.707 71.3005 442.715 71.4829C442.742 72.08 441.088 72.4517 437.754 72.5982C434.42 72.7446 432.741 72.5358 432.716 71.9719C432.71 71.8227 432.964 71.3628 433.478 70.5924C434.009 69.8047 434.376 68.8996 434.581 67.8769C434.801 66.837 434.829 64.4511 434.665 60.7193L434.648 59.7729C434.644 58.9256 434.633 58.2946 434.615 57.8799L434.582 55.987L434.522 54.0703L434.353 50.2141C434.143 45.4209 433.927 42.5971 433.707 41.7426C433.502 40.8709 433.166 40.2209 432.699 39.7928L432.133 39.3939L431.52 39.0469C431.023 38.7198 430.769 38.4069 430.755 38.1084C430.742 37.7933 430.929 37.5109 431.316 37.2612C432.416 36.5648 434.143 36.1649 436.498 36.0614L437.344 36.0243C438.29 35.9828 438.908 36.6286 439.199 37.9618C439.304 38.4558 439.508 42.1691 439.813 49.1019L439.914 51.964C440.014 54.2362 440.075 55.4466 440.098 55.5951C440.35 57.1627 440.816 57.9316 441.496 57.9018C442.176 57.8719 443.306 56.9249 444.886 55.0608C446.465 53.1801 447.237 51.8583 447.204 51.0954L447.09 50.2031C447.065 49.6391 447.263 49.2316 447.684 48.9805C448.122 48.7286 449.037 48.5721 450.431 48.5109C453.598 48.3717 455.197 48.6422 455.227 49.3222C455.228 49.3388 453.812 50.5891 450.98 53.0732C448.148 55.5573 446.754 57.3052 446.798 58.3169C446.843 59.3286 448.984 62.1011 453.221 66.6344C454.145 67.6241 455.146 68.4692 456.224 69.1696C457.318 69.8694 457.87 70.3436 457.881 70.5924C457.917 71.4051 456.708 71.8654 454.253 71.9732L452.437 72.053C450.845 72.1229 449.68 71.7171 448.943 70.8354L447.842 68.466C447.384 67.489 446.644 66.3417 445.622 65.0239C444.055 63.0156 442.873 62.0289 442.077 62.0638Z" fill="#B98348"/>
<path d="M475.966 59.3864L475.543 59.4122C473.372 59.545 471.588 60.1449 470.189 61.2117C468.807 62.261 468.159 63.5065 468.247 64.9481L468.278 65.4452C468.33 66.2903 468.633 67.0369 469.188 67.6848C469.759 68.3152 470.459 68.6051 471.287 68.5544L471.589 68.5859L472.334 68.5402C474.058 68.4348 475.423 67.6444 476.431 66.169C476.874 65.5265 477.037 64.2524 476.92 62.3468C476.911 62.1977 476.902 62.0485 476.893 61.8994L476.881 61.3014L476.845 60.7048C476.789 59.7934 476.496 59.354 475.966 59.3864ZM463.395 52.0969C463.32 50.8707 464.222 49.7177 466.102 48.638C467.998 47.5408 469.989 46.9283 472.077 46.8005C472.144 46.7965 472.21 46.7924 472.276 46.7884C474.265 46.6667 475.87 46.8097 477.093 47.2173C479.571 48.0304 481.079 49.9839 481.617 53.0779C481.67 53.3907 481.814 55.4776 482.05 59.3385C482.286 63.1829 482.523 65.4304 482.762 66.0811C483.018 66.7307 483.611 67.1851 484.542 67.4442C485.489 67.7022 485.972 67.9721 485.989 68.2538C486.025 68.8504 485.755 69.3243 485.178 69.6756C484.023 70.3783 482.866 70.7651 481.706 70.8361C480.562 70.906 479.693 70.6931 479.097 70.1973C478.028 69.3146 477.461 68.8753 477.395 68.8794C477.328 68.8834 476.418 69.3632 474.664 70.3188C472.908 71.2578 471.351 71.7689 469.992 71.852C467.954 71.9767 466.32 71.5111 465.092 70.4553C463.863 69.3994 463.199 68.0679 463.101 66.4605L463.063 65.8391C462.957 64.1158 463.61 62.5539 465.022 61.1536C466.433 59.7533 469.055 58.57 472.888 57.6037C474.28 57.2524 475.151 56.9496 475.502 56.6953C476.202 56.1868 476.509 55.2199 476.422 53.7949C476.335 52.3698 475.887 51.2995 475.078 50.5838C474.269 49.8682 473.227 49.5494 471.951 49.6275C470.675 49.7055 469.486 50.5267 468.384 52.0911C467.298 53.6378 466.266 54.4411 465.288 54.5009C464.128 54.5719 463.497 53.7705 463.395 52.0969Z" fill="#B98348"/>
<path d="M506.232 52.6138L506.172 51.8441C506.077 50.6193 505.552 49.5528 504.599 48.6445C503.645 47.7197 502.53 47.3068 501.256 47.406L500.784 47.4427C500.555 47.4939 500.399 47.5227 500.316 47.5291C499.157 47.6193 498.108 48.367 497.169 49.7723C496.245 51.1762 495.842 52.6313 495.96 54.1375L495.985 54.4603C496.026 54.9899 496.361 55.2303 496.99 55.1813C497.242 55.2117 497.377 55.2262 497.393 55.2249L497.966 55.2053L498.115 55.1937L498.287 55.1553L503.057 54.5093L503.943 54.3405C505.549 54.2155 506.312 53.64 506.232 52.6138ZM496.416 59.9967C496.563 61.8836 497.397 63.4089 498.92 64.5726C500.442 65.7363 502.296 66.2331 504.481 66.0631C505.358 65.9948 506.143 65.8089 506.835 65.5052C507.543 65.1837 508.305 64.808 509.121 64.3782C509.953 63.9471 510.477 63.7232 510.692 63.7064C511.354 63.6549 511.713 63.985 511.768 64.6967C511.843 65.6567 510.698 66.7782 508.333 68.0613C506.8 68.8966 505.122 69.3852 503.302 69.5268L502.756 69.5693C499.644 69.8115 496.988 69.069 494.789 67.3419C493.6 66.402 492.638 65.1614 491.902 63.6201C491.165 62.0622 490.724 60.3647 490.581 58.5275L490.562 57.9545L490.517 57.3835C490.394 55.7946 490.636 54.2021 491.245 52.6061C491.87 51.0089 492.657 49.6738 493.606 48.6008C495.612 46.3466 498.103 45.0953 501.081 44.8469C505.583 44.4965 508.716 46.0179 510.479 49.4108C511.028 50.4837 511.339 51.4836 511.411 52.4105L511.45 52.907C511.539 54.0491 511.127 54.8555 510.215 55.3261C509.301 55.7802 507.099 56.2679 503.609 56.7893C500.12 57.3106 498.229 57.6243 497.938 57.7302C496.834 58.0992 496.327 58.8547 496.416 59.9967Z" fill="#B98348"/>
<path d="M515.312 67.2645C515.281 66.9173 515.613 66.4374 516.308 65.825C517.02 65.2111 517.456 64.3135 517.617 63.1323C517.776 61.9346 517.51 57.4913 516.821 49.8025C516.131 42.1137 515.649 37.7648 515.375 36.756C515.117 35.7456 514.63 35.0476 513.912 34.662C512.757 34.0489 512.172 33.6597 512.157 33.4944L512.13 33.1967C512.105 32.9156 512.322 32.6461 512.783 32.3881C514.213 31.6097 516.168 31.1092 518.648 30.8867L519.145 30.8421C519.988 30.7665 520.527 31.2932 520.761 32.4222C520.791 32.5696 520.912 33.8172 521.122 36.1652L521.601 41.4978L521.667 42.5169L521.808 44.0795L521.874 45.0986C521.874 45.0986 522.109 47.7194 522.579 52.9611C523.019 57.8555 523.365 60.883 523.619 62.0436C523.889 63.1863 524.336 63.9962 524.963 64.4734C525.033 64.517 525.4 64.7008 526.062 65.0247C526.725 65.3487 527.074 65.7091 527.109 66.1059C527.161 66.6846 526.162 67.066 524.112 67.25L523.099 67.3908L522.082 67.4821L518.021 67.9215L517.5 67.9682C516.095 68.0943 515.366 67.8598 515.312 67.2645Z" fill="#B98348"/>
<path d="M544.464 53.8046L544.043 53.8487C541.88 54.0752 540.123 54.7517 538.772 55.8781C537.436 56.9862 536.843 58.2585 536.994 59.695L537.046 60.1903C537.134 61.0324 537.469 61.7651 538.052 62.3884C538.65 62.9935 539.361 63.2528 540.187 63.1664L540.489 63.1848L541.232 63.1069C542.949 62.9271 544.279 62.0783 545.222 60.5607C545.637 59.8997 545.745 58.6197 545.546 56.7209C545.53 56.5723 545.515 56.4237 545.499 56.2751L545.462 55.6781L545.4 55.0837C545.304 54.1756 544.993 53.7492 544.464 53.8046ZM531.59 47.0657C531.462 45.8439 532.313 44.6529 534.145 43.4929C535.991 42.3147 537.955 41.6166 540.035 41.3987C540.101 41.3918 540.167 41.3849 540.233 41.3779C542.215 41.1704 543.825 41.2438 545.064 41.5981C547.575 42.3032 549.166 44.1897 549.838 47.2575C549.904 47.5678 550.138 49.6464 550.541 53.4936C550.942 57.3242 551.277 59.5593 551.544 60.199C551.828 60.837 552.44 61.2653 553.381 61.4838C554.339 61.7007 554.832 61.9495 554.862 62.2302C554.924 62.8246 554.674 63.3098 554.113 63.6857C552.99 64.4377 551.85 64.8742 550.694 64.9953C549.555 65.1146 548.677 64.9395 548.06 64.4699C546.955 63.6343 546.369 63.2199 546.303 63.2268C546.237 63.2338 545.348 63.7525 543.636 64.7831C541.923 65.7972 540.389 66.3751 539.036 66.5169C537.005 66.7297 535.352 66.3352 534.079 65.3335C532.806 64.3318 532.085 63.0301 531.917 61.4286L531.853 60.8094C531.673 59.0922 532.257 57.5036 533.607 56.0436C534.956 54.5835 537.525 53.2879 541.312 52.1567C542.688 51.7455 543.545 51.4053 543.884 51.1361C544.562 50.5977 544.827 49.6185 544.678 48.1986C544.53 46.7786 544.036 45.7286 543.197 45.0487C542.358 44.3687 541.302 44.0953 540.031 44.2285C538.76 44.3617 537.607 45.2335 536.574 46.844C535.556 48.4363 534.56 49.2835 533.585 49.3855C532.43 49.5066 531.764 48.7333 531.59 47.0657Z" fill="#B98348"/>
<path d="M564.714 63.7829C563.857 63.8835 563.038 63.6705 562.257 63.1437C561.476 62.6168 561.028 61.8588 560.912 60.8695L560.886 60.6469C560.773 59.6906 561.043 58.8566 561.695 58.1448C562.364 57.4311 563.077 57.0298 563.835 56.9407L564.281 56.8884C564.534 56.9088 564.718 56.9123 564.833 56.8987C565.411 56.831 566.049 57.0736 566.749 57.6265C567.449 58.1795 567.848 58.8682 567.945 59.6926L567.985 60.0389C568.074 60.7973 567.856 61.5669 567.329 62.3475C566.816 63.1097 566.173 63.5363 565.398 63.6273L564.838 63.7683L564.714 63.7829Z" fill="#B98348"/>
</svg>
