<svg width="84" height="89" viewBox="0 0 84 89" fill="none" xmlns="http://www.w3.org/2000/svg">
<path d="M0 4.93976L0.239781 5.37257C5.14862 11.6687 8.20342 19.2162 9.05892 27.1621H9.08769C9.08769 27.6959 9.08769 28.2345 9.05892 28.7875C8.93903 36.1693 8.8623 43.604 8.83352 50.88V51.3609H16.5065V50.88C16.5065 47.6196 16.4394 44.2629 16.3674 41.0216C16.2763 37.035 16.1804 32.9185 16.2475 28.8789C16.4058 19.3715 16.5545 10.3932 19.2304 8.97931C19.6466 8.77462 20.1049 8.67085 20.5684 8.67635C21.105 8.65409 21.638 8.77524 22.1126 9.0274C23.7191 9.96035 24.2466 14.3173 24.8125 23.6996C24.8924 25.0077 24.966 26.25 25.0331 27.4266C25.7237 39.4491 26.069 45.5036 31.1475 47.6676C31.2962 47.7205 34.8449 49.0671 37.5497 47.9081C42.8248 45.6431 43.8943 38.4536 44.9349 23.7285C45.0021 22.8148 45.0596 21.9347 45.1171 21.0932V20.8719C45.1747 20.0448 45.2227 19.2706 45.2706 18.5444C45.6926 12.0571 45.8509 9.62852 47.2752 8.89275L47.3855 8.83504C47.7109 8.63212 48.0861 8.52389 48.4693 8.52246C48.9418 8.50222 49.4134 8.57914 49.8552 8.74848C52.1715 9.62852 53.2841 14.1153 54.4302 27.215C54.5453 28.5375 54.6748 31.9663 54.8091 35.5971C54.929 38.8431 55.0537 42.1998 55.1736 44.1619C53.3877 45.866 51.7332 47.7035 50.2245 49.6586C43.2852 58.7957 42.892 59.7575 40.3551 65.913C37.5784 72.6455 38.1635 79.8254 40.1777 83.4033C40.7627 84.442 42.5467 87.6063 46.2201 88.6595C46.9904 88.8807 47.7879 88.9924 48.5892 88.9913C50.4912 88.8485 52.3446 88.3201 54.037 87.438C58.1852 85.0768 60.8084 78.1326 60.9187 77.82C62.4389 73.7324 63.2494 67.4566 63.2685 59.6613C63.2748 55.4717 63.0538 51.2849 62.6068 47.1194C69.6659 41.1322 77.4732 38.3622 83.5061 36.6166L83.9616 36.4867L81.9858 29.0665L81.5063 29.2011C74.5263 31.177 67.9269 34.3144 61.9833 38.4825C61.9833 37.9439 61.9545 37.2321 61.9354 36.4242C61.8634 33.1637 61.7531 28.2489 61.5853 26.6139C60.7748 18.8233 59.4225 5.79095 53.1546 2.5016C51.7047 1.765 50.1166 1.34229 48.4933 1.26088C46.9263 1.23185 45.3733 1.56075 43.9518 2.22268C38.9692 4.80992 38.5759 10.6673 37.9237 20.367C37.8662 21.2663 37.799 22.2088 37.7319 23.1947C37.2523 30.2014 36.7728 34.6209 36.1733 37.5303C35.9951 38.6154 35.6726 39.6715 35.2142 40.6706C35.1526 40.8035 35.0573 40.9179 34.9378 41.0023C34.8183 41.0867 34.6788 41.1381 34.5332 41.1515C34.3597 41.163 34.1883 41.108 34.0537 40.9976L33.9769 40.9206H33.929C33.8522 40.8389 33.483 40.3532 33.1425 38.5161C32.6629 35.9337 32.4279 31.9759 32.1402 26.9746C32.0731 25.7915 32.0011 24.5412 31.9244 23.2235C31.2626 12.3408 30.8646 5.77171 25.6374 2.74205C24.0452 1.84727 22.2446 1.39255 20.4197 1.42439C18.8153 1.43378 17.2359 1.82436 15.8111 2.56412C13.6579 3.77598 10.4976 5.81019 10.9772 12.4274C9.94611 6.90183 7.91756 3.98758 5.81708 -0.0183105L0 4.93976ZM55.6867 67.3605C55.3414 70.847 54.1569 79.1762 50.6033 81.1334C50.2293 81.345 49.0783 81.9798 48.2343 81.7345C47.3903 81.4893 46.7524 80.3544 46.4791 79.8638C44.4026 76.1753 45.6255 67.2162 55.9121 54.1309C56.3629 59.5747 56.3437 60.7096 55.6867 67.3605Z" fill="#B98348"/>
</svg>
