<svg xmlns="http://www.w3.org/2000/svg" viewBox="0 0 86.59 5.89"><defs><style>.cls-1{fill:none;stroke:#000;stroke-linejoin:round;}</style></defs><g id="Layer_2" data-name="Layer 2"><g id="Layer_2-2" data-name="Layer 2"><path class="cls-1" d="M86.36,1.37,80.25,4.54c-2.71,1-5,1.21-7.46-.4L71.53,3.4c-2.67-1.78-6-3.6-9.45-2.27l-6.2,2.65a9,9,0,0,1-6.83.48l-8.9-3a8.93,8.93,0,0,0-6.45.32l-6.78,3a8.94,8.94,0,0,1-8.14-.45c-1.28-.75-2.57-1.7-3.86-2.45a8.94,8.94,0,0,0-9.36.21C4.14,2.86,1.7,4,.27,4.91"/></g></g></svg>