<svg xmlns="http://www.w3.org/2000/svg" viewBox="0 0 316.65 174.85"><defs><style>.cls-1{fill:none;stroke:#000;stroke-linejoin:round;stroke-width:2px;}</style></defs><g id="Layer_2" data-name="Layer 2"><g id="Layer_2-2" data-name="Layer 2"><path class="cls-1" d="M266,11.27s15.73-11.71,18.18.7-9.75,24.77-17.79,19.18,11.19-18,47.89-.35"/><path class="cls-1" d="M65.09,98.32s23.25,31,5.15,62.3c-15.5,26.78-22.62,7.25-14.23-9,0,0,23.66-48.64,60.1-57.23"/><path class="cls-1" d="M115.83,106a4.69,4.69,0,0,0-4.58-.8c-3.81,1.34-10.76,5.58-12.08,18.7-.25,2.48-.13,8.85,4.23,11.53,3.62,2.22,8,.48,8.39.32,3.84-1.6,5.44-5.17,6.53-7.71C121.53,120.56,120.89,110.23,115.83,106Z"/><path class="cls-1" d="M263.39,70.25a5.29,5.29,0,0,0-6.21-.44c-2.6,1.33-9.24,7.52-9.68,17.73-.16,3.73-.39,9.16,3.38,11.69a9.1,9.1,0,0,0,9.44-.13c.79-.49,2.65-1.82,4.44-6.7C268.38,82.56,266.45,72.66,263.39,70.25Z"/><path class="cls-1" d="M106,108.68s8,25.32,40.23-16.41"/><path class="cls-1" d="M139.47,118.88c14.44-20.48,19.43-24.4,21.07-23.52,2.43,1.3,1,15,.2,22.42-.23,2.19-.56,4.81.35,5.18,1.49.62,5.2-5.26,7.6-9,8.66-13.41,19.13-29.63,21.68-28.69,1.39.51,1.38,6.51-4.85,30.66,0,0,16.95-35.56,22.85-31s-11.23,35.25,9.62,19.48"/><path class="cls-1" d="M290.31,71.6c3.93-4.38,8.3-7.26,10.14-5.52,4,3.79-7.18,24.72-4.14,29.77"/><path class="cls-1" d="M205.2,116.2c.45,3.1,1.58,6.71,4.48,8.88,7.93,6,26.41-.9,31.26-13.54.29-.75,3.15-8.5-.5-15.67A22.71,22.71,0,0,0,228.8,85.68c-3.9-1.51-8.39-1.87-8.73-4.05a2.59,2.59,0,0,1,.49-1.66c1.84-3.34,6.62-4.81,10.46-4.63a14.05,14.05,0,0,1,6.25,1.82"/><path class="cls-1" d="M296.05,95.44c.77,1.81,2.72,3.06,5.06,3.58,4.79,1.06,10.43-2.38,14.71-8.63"/><path class="cls-1" d="M255.91,70.64a10.56,10.56,0,0,0-1.18,6.25c.71,4,4.54,5.63,5.24,5.93,7,3,12.45-3.67,14.9-6.4,3.52-3.94,9.22-12,9.91-11.44s-1.12,4.76-4.14,13.48c-1.86,5.37-5.09,15.19-4.54,15.49.26.14.63-2.3,6.76-12.45,1-1.64,1.71-2.78,2.52-3.91a42.69,42.69,0,0,1,5.26-6.29"/><path class="cls-1" d="M106.41,43.15s-18,34.76-.37,33.58c0,0,7.91-.35,17-18.71"/><path class="cls-1" d="M131.19,25.68s-9.1,38.06-12.82,47.78"/><path class="cls-1" d="M149.24,80.71s-9.1,38.06-12.83,47.78"/><path class="cls-1" d="M121.66,61.41C128,47.93,135.32,34.87,139.94,36A3.4,3.4,0,0,1,142,38c2.62,6.36-16.64,20.07-19.19,22.39-2.72,2.47,2.91-4.41,6.89-2.64,2.47,1.09,5.47,5.21,11.4,7.55,3.83,1.5,9.59,3.67,20.52-.11"/><path class="cls-1" d="M76.86,80.44c2-5.55,11.45-35.95,3.51-40.69-.12-.07-.14-.13-.27-.19-1.43-.67-3.56-.08-4.91.74-2.16,1.3-8,8.31-12.06,15C55.9,67.11,52,78.48,51.51,84.87c.16-3,3.73-36.05-6-38.67-6.58-1.77-17.42,13.71-24.81,24.44C19.45,72.45-6.18,110.26,3,123.7c.56.82,2.47,3.63,5.52,4.08,4.52.66,8.62-4.31,10.24-6.21C31.5,106.51,34,77.21,22.76,52.7A79,79,0,0,0,2.9,26.33"/><path class="cls-1" d="M157,38.09c7-7.68,16.64-11,22.5-8.36,4.53,2,7.47,7.9,4,14.85-3.71,7.45-13.7,12-19.62,11.57-3.21-.23-6.48-2-6-5.77.59-4.53,5.73-9.87,11.78-10.35a13.63,13.63,0,0,1,4.86.59c4.84,1.26,6.3,4.59,11.51,7.83,4.72,2.92,7.68,4.76,11.4,4.45A13.79,13.79,0,0,0,206.15,49c5-4.43,7-11.54,8.13-14.51,2.17-5.63,4.19-15,1.66-15.87s-5.1,1.89-6.7,4.17c0,0-5.71,8.11-2.32,17.91a9.15,9.15,0,0,0,2.08,3.4,12.22,12.22,0,0,0,3.94,2.62c3.13,1.28,8.34,1.6,14.12,0A30.2,30.2,0,0,0,242.8,37c3.3-4,4.5-7.7,5.92-12.09,3.24-10,3.92-22.9.85-23.88-1.77-.56-4.35,3-5.25,4.18C236.8,15.53,235.88,36,246.85,42c7,3.8,15.67.09,18.24-1.11"/></g></g></svg>