<svg xmlns="http://www.w3.org/2000/svg" viewBox="0 0 1900 2126.75"><defs><style>.cls-1{fill:#1c322f;}</style></defs><g id="Layer_2" data-name="Layer 2"><g id="Layer_2-2" data-name="Layer 2"><path class="cls-1" d="M657,1520.08c-1.2,5.52,27.51-132.06,19-333.57-8.45-200.68-53.17-352.57-72.26-412-63.2-196.79-152.2-335-195.94-401.91-58.43-89.4-171.13-223.32-172.39-225.1,2.73-18.67,14.2-54.31,25.56-81.34A288.61,288.61,0,0,1,299.93,0,1460.06,1460.06,0,0,1,439.24,180.12c57.82,88.29,91.94,161.56,126.18,235.06,29.64,63.65,51.88,111.4,74.75,180.9,29.79,90.55,42.29,162.15,50.58,211C732.36,1052.31,717,1244.05,657,1520.08Z"/><path class="cls-1" d="M1696,1347.89a195.28,195.28,0,0,1-62.55,1.52c-24.09-3.33-27.58-2.13-40.55-8.22,47.06-113.53,101-246.11,166.43-406,83.46-204.05,151.76-418.68,91.11-460.95C2006,548,1750.76,1238.64,1696,1347.89Z"/><path class="cls-1" d="M630.06,791c42.15-43,85.67-84.76,131.18-124.67S854.17,588.3,905.77,554.1c25.86-17,52.77-33.08,82.09-46.68,29.44-13.21,61-25.49,99.39-26.94a137,137,0,0,1,29.86,2.43,108.86,108.86,0,0,1,29.72,10.37A137.93,137.93,0,0,1,1192.14,530c23.54,29.38,35.22,61.83,43.24,93.05,15.3,62.9,16.66,124.43,15.29,185.09-1.72,60.67-7.65,120.53-15.49,179.92-15.72,118.45-40.53,236.8-67,351.27-1.73,1.28-7.15,7.5-26.07,8-9.75.28-17.11-2.65-19.68-4.71,10.31-37,31.4-98.17,56-153.64,20.18-45.43,42.94-89.42,67.3-132.4C1294.58,970.7,1350,889,1410.31,811.17,1469.89,732.9,1536.8,660,1608.5,593c36-33.41,72.79-66,112.31-95.33,10-7.19,20-14.27,30.94-20.33a120.07,120.07,0,0,1,34.91-12.51c24.07-4.89,50.86-1.54,70.39,13.78C1837,464,1810,462.88,1786.61,468.49a110.47,110.47,0,0,0-31.82,12.87A295.91,295.91,0,0,0,1724,501.79c-38.17,30.39-73.7,64.11-108.32,98.54-69.13,69.21-132.59,143.36-189,223-57,79.06-109.06,161.76-154.06,247.85-22.48,43-43.29,86.9-61.36,131.66s-33.49,90.53-43,136.5l-45.75,3.32c11.26-59.35,28.25-127.5,37.45-185.94,9.28-58.13,17.15-116.41,22.91-174.72s9.41-116.68,9.06-174.5c-.52-57.55-4.44-115.62-19.17-167.6-7.34-25.72-18.13-49.71-32.55-66.15a68.6,68.6,0,0,0-23.75-18.06,39,39,0,0,0-12.21-3.82,67.32,67.32,0,0,0-14.36-.56c-21.07,1.24-46.21,10.59-70,22.58-24.08,12.12-47.77,27.2-70.84,43.5C902.8,650.19,858.88,688,816.53,727.47s-83.09,81.28-122.46,124.2a44.1,44.1,0,0,1-65-59.61Z"/><path class="cls-1" d="M689.67,1310.42h0c-11.16,210.82-82.45,419.77-208.53,591.9-31.48,42.92-66.95,83.45-106.19,119.74-38.7,36.43-81,71.94-133.75,92.49-26.16,10.08-56,15.3-85.67,10.26s-56.86-20.56-77.82-40.49c-21.14-19.92-37.29-44.09-49.93-68.65-13.3-25.69-21.35-53.85-25.14-81.94-7.11-56.49.78-112.17,13.66-165.11,13.14-53.06,31.86-104,53.29-153.44,43-98.87,96.31-192,153.46-282.14,57.35-90.1,119.13-177,183.89-261.73,32.45-42.32,65.52-84,99.93-125.2L609.83,824.62a44.1,44.1,0,1,1,67.29,57l-.55.64-1.31,1.47c-34.87,39.22-69.87,79.38-104.65,117.83s-69,78.31-102.39,118.53c-66.74,80.56-130.7,163.55-190.17,249.4-59.27,85.9-114.7,174.64-159.63,267.93C96,1684,76.36,1731.86,62.19,1780.84c-14,48.84-22.76,99.38-18.49,148.22,2.35,24.31,8.17,47.86,18.3,69.54,10.58,22.74,23.59,43.54,40.29,60.6s36.75,29.36,59.23,34.13,46.71,1.92,70-6c46.95-16.06,89.09-47.87,128.16-82.08,39.48-34.15,74.86-72.57,107.07-113.85C595.34,1726,672.52,1520.82,689.67,1310.42h0"/></g></g></svg>