<svg id="ewvhObE6UJZ1" xmlns="http://www.w3.org/2000/svg" xmlns:xlink="http://www.w3.org/1999/xlink" viewBox="0 0 86.59 5.89" shape-rendering="geometricPrecision" text-rendering="geometricPrecision"><style><![CDATA[#ewvhObE6UJZ4_to {animation: ewvhObE6UJZ4_to__to 450ms linear infinite normal forwards}@keyframes ewvhObE6UJZ4_to__to { 0% {transform: translate(43.315002px,2.90501px);animation-timing-function: cubic-bezier(0.42,0,0.58,1)} 22.222222% {transform: translate(49.250319px,2.90501px);animation-timing-function: cubic-bezier(0.42,0,0.58,1)} 44.444444% {transform: translate(55.185636px,2.90501px);animation-timing-function: cubic-bezier(0.42,0,0.58,1)} 66.666667% {transform: translate(61.120953px,2.90501px);animation-timing-function: cubic-bezier(0.42,0,0.58,1)} 88.888889% {transform: translate(67.05627px,2.90501px)} 100% {transform: translate(67.05627px,2.90501px)}}]]></style><g id="ewvhObE6UJZ2" transform="matrix(1.68483 0 0 1 -52.099367 0)"><g id="ewvhObE6UJZ3" transform="matrix(1 0 0 1 0 0.039987)"><g id="ewvhObE6UJZ4_to" transform="translate(43.315002,2.90501)"><path id="ewvhObE6UJZ4" d="M86.36,1.37L80.25,4.54C77.54,5.54,75.25,5.75,72.79,4.14L71.53,3.4C68.86,1.62,65.53,-0.2,62.08,1.13L55.88,3.78C53.755481,4.83357,51.300994,5.006067,49.05,4.26L40.15,1.26C38.035363,0.5583,35.734797,0.672436,33.7,1.58L26.92,4.58C24.292206,5.747881,21.263048,5.580422,18.78,4.13C17.5,3.38,16.21,2.43,14.92,1.68C12.009836,-0.019897,8.390997,0.061295,5.56,1.89C4.14,2.86,1.7,4,0.27,4.91" transform="translate(-43.315002,-2.90501)" fill="none" stroke="rgb(185,131,72)" stroke-width="1" stroke-linejoin="round"/></g></g></g></svg>